<?xml version="1.0" encoding="utf-8"?>
<!-- Generator: Adobe Illustrator 27.5.0, SVG Export Plug-In . SVG Version: 6.00 Build 0)  -->
<svg version="1.1" xmlns="http://www.w3.org/2000/svg" xmlns:xlink="http://www.w3.org/1999/xlink" x="0px" y="0px"
	 viewBox="0 0 500 500" style="enable-background:new 0 0 500 500;" xml:space="preserve">
<g id="Background_Complete">
	<g>
		<g>
			<g>
				<g>
					<g>
						<path style="fill:#F5F5F5;" d="M191.367,458.338c-1.394-1.195-4.503-4.982-2.105-9.387c0.879-1.615,2.745-2.413,4.435-3.125
							c1.69-0.711,3.465-1.33,4.863-2.519c2.637-2.243,3.364-5.97,5.115-8.963c2.009-3.435,5.76-6.009,9.722-5.829
							c4.538,0.206,8.322,3.912,10.037,8.138c1.716,4.225,1.776,8.917,1.811,13.481c0.02,2.523-0.092,5.368-1.945,7.072
							c-1.708,1.571-4.279,1.59-6.594,1.519c-8.266-0.254-16.531-0.508-24.797-0.762"/>
					</g>
				</g>
			</g>
		</g>
		<g>
			<g>
				<g>
					<g>
						<g>
							<path style="fill:#E0E0E0;" d="M238.794,390.15h-65.213l11.747,70.045c0.514,3.059,2.727,5.417,5.568,6.236
								c0.075,0.024,0.153,0.041,0.229,0.063c0.194,0.05,0.381,0.115,0.581,0.15c0.43,0.089,0.875,0.134,1.326,0.152
								c0.003,0.022,0.007,0.045,0.01,0.067l0.318-0.05c0.001,0,0.001,0,0.002,0h29.064c0.547,0,1.08-0.056,1.597-0.159
								c3.432-0.531,6.18-3.286,6.597-6.846l5.663-48.262l0.255-1.919h-0.03l2.243-19.113L238.794,390.15z M226.492,434.83H219.8
								l0.675-20.329h7.754L226.492,434.83z M228.878,414.502h6.407L232.9,434.83h-5.759L228.878,414.502z M209.759,457.366
								l-0.407-17.66h9.637l-0.587,17.66H209.759z M199.34,439.705h9.364l0.407,17.66h-8.399L199.34,439.705z M200.064,457.366
								h-7.851c-0.746-4.768-1.717-10.965-2.768-17.66h9.247L200.064,457.366z M198.961,434.83l-1.58-20.329h10.743l0.468,20.329
								H198.961z M209.24,434.83l-0.468-20.329h11.055l-0.675,20.329H209.24z M208.659,409.626l-0.434-18.826h12.388l-0.626,18.826
								H208.659z M208.012,409.626h-11.009l-1.463-18.826h12.039L208.012,409.626z M196.354,409.626h-11.648
								c-0.412-2.6-0.804-5.061-1.157-7.276c-1.215-7.612-1.672-10.474-1.925-11.551h13.267L196.354,409.626z M196.732,414.502
								l1.58,20.329h-9.633c-0.324-2.063-0.652-4.149-0.981-6.237c-0.755-4.799-1.511-9.596-2.222-14.091H196.732z M188.024,434.83
								h-6.293l-3.41-20.329h6.5C185.815,420.784,186.916,427.776,188.024,434.83z M188.79,439.705
								c0.959,6.111,1.903,12.137,2.768,17.66h-6.047l-2.962-17.66H188.79z M219.051,457.366l0.587-17.66h6.438l-1.509,17.66
								H219.051z M220.637,409.626l0.625-18.826h8.991l-1.608,18.826H220.637z M181.006,390.8c0.258,1.361,1.449,8.769,3.043,18.826
								h-6.546l-3.158-18.826H181.006z M230.256,457.366h-5.04l1.509-17.66h5.603L230.256,457.366z M235.857,409.626h-6.563
								l1.608-18.826h7.163L235.857,409.626z"/>
						</g>
					</g>
				</g>
			</g>
		</g>
	</g>
	<g>
		<g>
			<g>
				
					<rect x="312.543" y="82.633" transform="matrix(0.9859 -0.1671 0.1671 0.9859 -14.4022 62.312)" style="fill:#EBEBEB;" width="101.265" height="68.256"/>
			</g>
			<g>
				<g>
					<path style="fill:#FAFAFA;" d="M407.395,74.654c0.024,0.02-0.245,0.382-0.778,1.053c-0.597,0.733-1.384,1.699-2.367,2.907
						c-2.151,2.576-5.155,6.174-8.843,10.59c-7.596,8.957-17.992,21.218-29.508,34.798l-0.243,0.286l-0.33-0.183
						c-0.251-0.139-0.524-0.29-0.797-0.441c-15.734-8.777-29.972-16.72-40.382-22.527c-5.08-2.885-9.221-5.236-12.186-6.919
						c-1.367-0.799-2.462-1.438-3.291-1.922c-0.747-0.448-1.132-0.697-1.117-0.725c0.015-0.028,0.43,0.167,1.207,0.563
						c0.85,0.446,1.972,1.035,3.374,1.771c2.999,1.621,7.188,3.885,12.328,6.663c10.444,5.747,24.728,13.607,40.513,22.292
						c0.273,0.151,0.545,0.302,0.797,0.441l-0.572,0.104c11.597-13.511,22.067-25.709,29.716-34.62
						c3.78-4.338,6.859-7.871,9.064-10.401c1.037-1.161,1.868-2.091,2.497-2.795C407.056,74.956,407.371,74.634,407.395,74.654z"/>
				</g>
			</g>
		</g>
		<g>
			<g>
				<path style="fill:#FAFAFA;" d="M318.956,158.868c-0.219-0.129,5.726-10.626,13.277-23.443
					c7.553-12.821,13.852-23.107,14.07-22.978c0.219,0.129-5.725,10.623-13.278,23.445
					C325.475,148.709,319.175,158.997,318.956,158.868z"/>
			</g>
		</g>
		<g>
			<g>
				<path style="fill:#FAFAFA;" d="M379.348,105.982c0.171-0.188,9.142,7.713,20.034,17.644
					c10.896,9.935,19.587,18.137,19.416,18.325c-0.171,0.188-9.14-7.711-20.035-17.646
					C387.87,114.374,379.177,106.17,379.348,105.982z"/>
			</g>
		</g>
	</g>
	<g>
		<g>
			<g>
				
					<rect x="54.204" y="257.021" transform="matrix(0.9961 -0.0885 0.0885 0.9961 -23.9462 8.1218)" style="fill:#F5F5F5;" width="50.867" height="34.286"/>
			</g>
			<g>
				<g>
					<path style="fill:#E0E0E0;" d="M103.454,254.837c0.011,0.011-0.138,0.182-0.431,0.496c-0.328,0.343-0.76,0.796-1.301,1.361
						c-1.18,1.204-2.827,2.886-4.849,4.951c-4.16,4.183-9.853,9.909-16.159,16.251l-0.133,0.134l-0.158-0.105
						c-0.12-0.08-0.251-0.166-0.381-0.253c-7.53-5.021-14.343-9.564-19.325-12.886c-2.429-1.646-4.409-2.988-5.827-3.949
						c-0.653-0.454-1.176-0.818-1.571-1.093c-0.356-0.254-0.539-0.394-0.531-0.407c0.009-0.013,0.209,0.101,0.582,0.33
						c0.408,0.257,0.946,0.596,1.619,1.021c1.437,0.931,3.445,2.231,5.908,3.827c5.001,3.293,11.841,7.797,19.4,12.773
						c0.131,0.087,0.261,0.173,0.381,0.253l-0.291,0.029c6.344-6.304,12.072-11.996,16.256-16.154
						c2.065-2.022,3.748-3.669,4.952-4.848c0.566-0.54,1.018-0.973,1.362-1.3C103.272,254.975,103.443,254.826,103.454,254.837z"/>
				</g>
			</g>
		</g>
		<g>
			<g>
				<path style="fill:#E0E0E0;" d="M55.821,293.49c-0.104-0.073,3.29-5.093,7.58-11.211c4.292-6.12,7.855-11.02,7.959-10.947
					c0.104,0.073-3.289,5.092-7.581,11.212C59.489,288.662,55.925,293.563,55.821,293.49z"/>
			</g>
		</g>
		<g>
			<g>
				<path style="fill:#E0E0E0;" d="M88.164,269.409c0.093-0.087,4.271,4.226,9.33,9.632c5.061,5.408,9.087,9.861,8.994,9.948
					c-0.093,0.087-4.27-4.225-9.331-9.633C92.098,273.951,88.071,269.496,88.164,269.409z"/>
			</g>
		</g>
	</g>
	<g>
		<g>
			<g>
				<g>
					<path style="fill:#E0E0E0;" d="M463.419,218.008c0,0,0.034-0.27,0.116-0.769c0.087-0.516,0.211-1.25,0.371-2.199
						c0.335-1.938,0.823-4.752,1.445-8.345c1.265-7.199,3.079-17.515,5.285-30.067l0.163,0.234
						c-16.681-2.978-37.575-6.708-60.197-10.747l-0.005-0.001l0.291-0.203c-2.655,14.758-5.177,28.78-7.437,41.341l-0.185-0.266
						c17.708,3.223,32.718,5.955,43.322,7.885c5.295,0.977,9.49,1.75,12.382,2.283c1.426,0.268,2.53,0.475,3.299,0.62
						c0.363,0.071,0.644,0.126,0.854,0.167C463.316,217.98,463.416,218.003,463.419,218.008c0.004,0.005-0.089-0.007-0.275-0.036
						c-0.205-0.033-0.479-0.078-0.834-0.136c-0.76-0.13-1.852-0.316-3.263-0.557c-2.885-0.503-7.069-1.232-12.352-2.153
						c-10.65-1.882-25.725-4.546-43.51-7.689l-0.226-0.04l0.04-0.226c2.247-12.564,4.754-26.587,7.394-41.348l0.044-0.247
						l0.247,0.045l0.005,0.001c22.615,4.075,43.504,7.839,60.18,10.844l0.199,0.036l-0.036,0.198
						c-2.302,12.588-4.195,22.933-5.516,30.153c-0.662,3.566-1.181,6.359-1.538,8.282c-0.177,0.93-0.313,1.648-0.409,2.154
						C463.476,217.772,463.419,218.008,463.419,218.008z"/>
				</g>
			</g>
		</g>
		<g>
			<g>
				<g>
					<path style="fill:#E0E0E0;" d="M470.835,176.663c0.009,0.015-0.227,0.185-0.685,0.497c-0.498,0.331-1.171,0.779-2.018,1.342
						c-1.805,1.173-4.348,2.826-7.474,4.857c-6.372,4.083-15.108,9.68-24.759,15.864c-0.674-0.119-0.193-0.041-0.346-0.071
						l-0.01-0.013l-0.02-0.027l-0.041-0.054l-0.081-0.107l-0.162-0.214l-0.324-0.427l-0.644-0.85
						c-0.428-0.565-0.853-1.127-1.275-1.684c-0.844-1.115-1.675-2.214-2.491-3.294c-1.631-2.16-3.204-4.244-4.704-6.231
						c-2.983-3.97-5.672-7.548-7.942-10.568c-2.225-2.991-4.035-5.424-5.32-7.151c-0.599-0.823-1.074-1.476-1.426-1.96
						c-0.322-0.451-0.484-0.693-0.47-0.704c0.014-0.01,0.203,0.211,0.551,0.643c0.371,0.47,0.871,1.104,1.501,1.903
						c1.315,1.704,3.169,4.104,5.447,7.055c2.294,3.002,5.012,6.558,8.028,10.504c1.507,1.981,3.089,4.059,4.728,6.214
						c0.819,1.078,1.652,2.176,2.498,3.289c0.423,0.557,0.848,1.118,1.277,1.683l0.645,0.85l0.324,0.427l0.162,0.214l0.081,0.107
						l0.041,0.054l0.02,0.027l0.01,0.013c-0.146-0.023,0.341,0.072-0.324-0.049c9.682-6.135,18.446-11.689,24.838-15.74
						c3.162-1.975,5.734-3.582,7.56-4.722c0.869-0.53,1.559-0.951,2.069-1.263C470.571,176.79,470.825,176.648,470.835,176.663z"/>
				</g>
			</g>
		</g>
		<g>
			<g>
				<g>
					<path style="fill:#E0E0E0;" d="M427.371,187.941c0.087,0.108-5.276,4.544-11.975,9.907c-6.702,5.365-12.204,9.624-12.29,9.516
						c-0.087-0.108,5.274-4.543,11.977-9.908C421.782,192.094,427.284,187.833,427.371,187.941z"/>
				</g>
			</g>
		</g>
		<g>
			<g>
				<g>
					<path style="fill:#E0E0E0;" d="M463.72,218.559c-0.122,0.066-3.609-6.085-7.789-13.737c-4.181-7.655-7.47-13.913-7.349-13.98
						c0.122-0.066,3.609,6.084,7.789,13.739C460.552,212.234,463.842,218.493,463.72,218.559z"/>
				</g>
			</g>
		</g>
	</g>
	<g>
		<g>
			<g>
				<g>
					<g>
						<path style="fill:#E0E0E0;" d="M196.262,295.916v11.622H146.29c-3.209,0-5.811-2.602-5.811-5.811v0
							c0-3.209,2.602-5.811,5.811-5.811"/>
					</g>
				</g>
			</g>
		</g>
		<g>
			<g>
				<g>
					<g>
						<path style="fill:#FAFAFA;" d="M196.262,305.102h-16.555c-1.809,0-3.275-1.466-3.275-3.275v-0.199
							c0-1.809,1.466-3.275,3.275-3.275h16.555V305.102z"/>
					</g>
				</g>
			</g>
		</g>
	</g>
	<g>
		<g>
			<g>
				<g>
					<g>
						<path style="fill:#F5F5F5;" d="M196.262,284.294v11.621H146.29c-3.209,0-5.811-2.602-5.811-5.811v0
							c0-3.209,2.602-5.811,5.811-5.811H196.262z"/>
					</g>
				</g>
			</g>
		</g>
		<g>
			<g>
				<g>
					<g>
						<path style="fill:#E0E0E0;" d="M196.262,293.48h-16.555c-1.809,0-3.275-1.466-3.275-3.275v-0.199
							c0-1.809,1.466-3.275,3.275-3.275h16.555V293.48z"/>
					</g>
				</g>
			</g>
		</g>
	</g>
	<g>
		<g>
			<polygon style="fill:#E0E0E0;" points="160.172,265.654 152.236,284.294 157.344,284.294 160.87,274.338 			"/>
		</g>
		<g>
			<g>
				<g>
					<polygon style="fill:#EBEBEB;" points="184.542,248.784 187.608,284.294 161.669,284.294 158.819,248.784 					"/>
				</g>
				<g>
					<polygon style="fill:#FAFAFA;" points="182.008,251.601 184.694,281.345 165.223,281.6 162.593,251.429 					"/>
				</g>
			</g>
			<g>
				<polygon style="fill:#E0E0E0;" points="177.877,255.719 179.404,276.186 169.018,276.186 167.186,255.719 				"/>
			</g>
		</g>
	</g>
</g>
<g id="Background_Simple" style="display:none;">
	<path style="display:inline;fill:#EBEBEB;" d="M433.219,135.162l-2.119-3.447c-17.859-29.061-50.149-46.58-84.193-44.454
		c-4.376,0.273-8.734,0.858-13.033,1.767c-30.953,6.543-57.886,29.656-69.049,59.258c-6.565,17.409-8.4,37.454-20.859,51.272
		c-16.215,17.984-43.744,18.549-67.948,17.804c-24.203-0.745-51.751-0.11-67.887,17.946c-10.106,11.308-13.318,27.388-12.503,42.531
		c2.157,40.092,30.449,75.941,66.429,93.76c35.98,17.819,78.342,19.415,117.72,11.576c55.164-10.981,107.624-41.136,139.157-87.712
		S458.448,185.432,433.219,135.162z"/>
</g>
<g id="Floor">
	<g>
		<g>
			<path style="fill:#263238;" d="M477.109,466.863c0,0.144-101.241,0.26-226.098,0.26c-124.901,0-226.12-0.117-226.12-0.26
				c0-0.144,101.219-0.26,226.12-0.26C375.868,466.603,477.109,466.72,477.109,466.863z"/>
		</g>
	</g>
</g>
<g id="Screen">
	<g id="New_Email">
		<g>
			<g>
				<rect x="46.988" y="45.631" style="fill:#FAFAFA;" width="269.768" height="183"/>
			</g>
			<g>
				<path style="fill:#FAFAFA;" d="M317.992,228.768H47.814V45.494h270.178V228.768z M317.786,45.631H48.018v183h269.768"/>
			</g>
			<g>
				<path style="fill:#FAFAFA;" d="M317.992,228.768H47.814V45.494h270.178V228.768z M317.786,45.631H48.018v183h269.768"/>
			</g>
			<g>
				<g>
					<rect x="47.916" y="45.596" style="fill:#E8505B;" width="269.973" height="18.142"/>
				</g>
				<g>
					<rect x="47.916" y="200.63" style="fill:#EBEBEB;" width="269.973" height="28.139"/>
				</g>
				<g>
					<g>
						<g>
							<polygon style="fill:none;" points="80.666,213.26 78.837,212.993 78.016,211.333 77.199,212.993 75.366,213.26 
								76.693,214.552 76.676,214.64 76.378,216.375 78.016,215.512 79.654,216.375 79.343,214.552 79.405,214.489 							"/>
						</g>
						<g>
							<path style="fill:none;" d="M66.182,211.763c-0.606,0-1.097,0.491-1.097,1.097c0,0.606,0.491,1.097,1.097,1.097
								c0.606,0,1.096-0.491,1.096-1.097C67.278,212.254,66.787,211.763,66.182,211.763z"/>
						</g>
						<g>
							<path style="fill:#263238;" d="M99.157,214.248h2.229l0.703,1.459h0.479l-2.23-4.658h-0.123l-2.236,4.658h0.484
								L99.157,214.248z M100.274,211.925l0.902,1.888h-1.807L100.274,211.925z"/>
						</g>
						<g>
							<rect x="97.62" y="216.699" style="fill:#263238;" width="5.278" height="0.372"/>
						</g>
						<g>
							<path style="fill:#263238;" d="M66.36,210.788c-0.005,0-0.01,0-0.015,0h-0.326c-0.005,0-0.01,0-0.016,0
								c-1.023,0-1.854,0.946-1.854,2.001c0,1.056,1.137,3.23,1.854,3.97c0,0,0.139,0.244,0.357,0
								c0.717-0.739,1.854-2.914,1.854-3.97C68.214,211.734,67.384,210.788,66.36,210.788z M66.182,213.957
								c-0.606,0-1.097-0.491-1.097-1.097c0-0.606,0.491-1.097,1.097-1.097c0.606,0,1.096,0.491,1.096,1.097
								C67.278,213.466,66.787,213.957,66.182,213.957z"/>
						</g>
						<g>
							<path style="fill:#263238;" d="M91.075,215.443c0,0.623-0.507,1.129-1.129,1.129c-0.623,0-1.129-0.507-1.129-1.129v-3.65
								c0-0.403,0.328-0.731,0.731-0.731c0.403,0,0.731,0.328,0.731,0.731v3.095h0.003c-0.048,0.186-0.21,0.324-0.405,0.324
								c-0.196,0-0.36-0.141-0.406-0.33v-2.384h-0.273v2.277v0.002v0.11h0.011c0.053,0.33,0.331,0.584,0.669,0.584
								c0.337,0,0.616-0.254,0.669-0.584h0.006v-0.061c0.001-0.017,0.005-0.033,0.005-0.051h-0.005v-3.017H90.55
								c-0.018-0.538-0.46-0.971-1.003-0.971c-0.542,0-0.984,0.432-1.003,0.971h-0.002v3.812h0.007
								c0.065,0.714,0.666,1.275,1.396,1.275c0.73,0,1.331-0.561,1.396-1.275h0.006v-3.072h-0.273V215.443z"/>
						</g>
						<g>
							<path style="fill:#263238;" d="M79.061,212.68l-1.045-2.116l-1.045,2.116l-2.337,0.34l1.691,1.649l-0.399,2.328l2.091-1.099
								l2.091,1.099l-0.399-2.328l1.691-1.649L79.061,212.68z M79.654,216.375l-1.638-0.863l-1.638,0.863l0.298-1.735l0.017-0.088
								l-1.327-1.292l1.833-0.267l0.817-1.66l0.821,1.66l1.829,0.267l-1.261,1.229l-0.063,0.063L79.654,216.375z"/>
						</g>
					</g>
					<g>
						<g>
							<path style="fill:#263238;" d="M120.211,207.962h-0.34v10.847h0.34V207.962z M120.04,218.809v-10.845V218.809z"/>
						</g>
						<g>
							<rect x="109.255" y="211.801" style="fill:#263238;" width="4.318" height="4.602"/>
						</g>
						<g>
							<polygon style="fill:#263238;" points="110.618,210.723 110.618,211.077 112.209,211.077 112.209,210.723 113.572,210.723 
								113.572,211.432 109.255,211.432 109.255,210.723 							"/>
						</g>
						<g>
							<rect x="110.618" y="210.369" style="fill:#263238;" width="1.591" height="0.354"/>
						</g>
						<g>
							<rect x="110.618" y="210.723" style="fill:#263238;" width="1.591" height="0.354"/>
						</g>
						<g>
							<polygon style="fill:#263238;" points="129.986,214.266 131.312,212.94 131.473,213.101 129.986,214.587 128.499,213.101 
								128.66,212.94 							"/>
						</g>
					</g>
				</g>
				<g>
					<g>
						<rect x="300.208" y="52.994" style="fill:none;" width="3.346" height="3.347"/>
					</g>
					<g>
						<polygon style="fill:#263238;" points="292.71,54.866 296.453,54.866 296.453,54.667 292.71,54.667 296.453,54.667 
							296.453,54.469 292.71,54.469 						"/>
					</g>
					<g>
						<polygon style="fill:#263238;" points="311.378,52.936 311.098,52.655 309.367,54.386 307.636,52.655 307.355,52.936 
							309.086,54.667 307.355,56.399 307.636,56.68 309.367,54.948 311.098,56.68 311.378,56.399 309.647,54.667 						"/>
					</g>
					<g>
						<path style="fill:#263238;" d="M299.81,56.738h4.14v-4.141h-4.14V56.738z M300.208,52.994h3.346v3.347h-3.346V52.994z"/>
					</g>
				</g>
				<g>
					<path style="fill:#263238;" d="M311.786,105.128c0-0.794-0.633-1.441-1.42-1.467v-0.003h-5.578v0.01
						c-1.044,0.095-1.865,0.974-1.865,2.042c0,1.069,0.821,1.948,1.865,2.043v0.009h4.495v-0.399h-4.308
						c-0.911,0-1.652-0.741-1.652-1.653c0-0.911,0.741-1.652,1.652-1.652h5.341c0.59,0,1.07,0.48,1.07,1.07
						c0,0.59-0.48,1.07-1.07,1.07h-4.529v0.004c-0.272-0.07-0.475-0.308-0.475-0.592c0-0.287,0.206-0.527,0.483-0.595h3.488v-0.4
						h-3.333v0l-0.002,0h-0.162v0.016c-0.483,0.077-0.854,0.485-0.854,0.978c0,0.494,0.371,0.901,0.854,0.978v0.009h0.09
						c0.025,0.002,0.049,0.007,0.074,0.007v-0.007h4.415v-0.002C311.153,106.568,311.786,105.921,311.786,105.128z"/>
				</g>
				<g>
					<path style="fill:#FFFFFF;" d="M60.193,51.586v4.967h-0.582l-2.98-3.704v3.704h-0.709v-4.967h0.582l2.98,3.704v-3.704H60.193z"
						/>
					<path style="fill:#FFFFFF;" d="M64.962,54.9h-3.051c0.085,0.66,0.618,1.1,1.362,1.1c0.44,0,0.809-0.149,1.086-0.454l0.376,0.44
						c-0.341,0.397-0.859,0.61-1.483,0.61c-1.213,0-2.022-0.802-2.022-1.923c0-1.114,0.802-1.916,1.888-1.916
						c1.086,0,1.859,0.78,1.859,1.937C64.977,54.751,64.969,54.836,64.962,54.9z M61.911,54.41h2.413
						c-0.071-0.632-0.546-1.079-1.206-1.079C62.465,53.332,61.983,53.772,61.911,54.41z"/>
					<path style="fill:#FFFFFF;" d="M71.535,52.792l-1.405,3.761h-0.653l-1.085-2.853l-1.1,2.853h-0.653l-1.398-3.761h0.646
						l1.092,2.995l1.135-2.995h0.575l1.114,3.009l1.121-3.009H71.535z"/>
					<path style="fill:#FFFFFF;" d="M77.827,55.936v0.617h-3.604v-4.967h3.505v0.617h-2.795v1.526h2.49v0.603h-2.49v1.604H77.827z"
						/>
					<path style="fill:#FFFFFF;" d="M85.116,54.389v2.164h-0.681v-2.086c0-0.738-0.355-1.1-0.972-1.1
						c-0.681,0-1.128,0.433-1.128,1.249v1.937h-0.681v-2.086c0-0.738-0.355-1.1-0.972-1.1c-0.681,0-1.128,0.433-1.128,1.249v1.937
						h-0.681v-3.761h0.653v0.561c0.27-0.383,0.731-0.596,1.298-0.596c0.575,0,1.058,0.227,1.306,0.695
						c0.284-0.426,0.809-0.695,1.448-0.695C84.491,52.757,85.116,53.282,85.116,54.389z"/>
					<path style="fill:#FFFFFF;" d="M89.343,54.283v2.271h-0.646v-0.497c-0.227,0.34-0.646,0.539-1.234,0.539
						c-0.851,0-1.391-0.454-1.391-1.107c0-0.603,0.39-1.1,1.511-1.1h1.078v-0.135c0-0.575-0.333-0.908-1.007-0.908
						c-0.447,0-0.901,0.156-1.192,0.404l-0.284-0.511c0.39-0.312,0.951-0.483,1.554-0.483
						C88.762,52.757,89.343,53.254,89.343,54.283z M88.662,55.404v-0.525h-1.05c-0.674,0-0.866,0.262-0.866,0.582
						c0,0.376,0.312,0.61,0.83,0.61C88.087,56.071,88.492,55.836,88.662,55.404z"/>
					<path style="fill:#FFFFFF;" d="M90.481,51.629c0-0.248,0.199-0.447,0.461-0.447c0.262,0,0.461,0.191,0.461,0.433
						c0,0.255-0.191,0.454-0.461,0.454C90.68,52.069,90.481,51.877,90.481,51.629z M90.602,52.792h0.681v3.761h-0.681V52.792z"/>
					<path style="fill:#FFFFFF;" d="M92.579,51.288h0.681v5.265h-0.681V51.288z"/>
				</g>
				<g>
					<path style="fill:#263238;" d="M56.209,69.922h-1.703v-0.617h4.108v0.617h-1.703v4.35h-0.702V69.922z"/>
					<path style="fill:#263238;" d="M58.546,72.391c0-1.121,0.83-1.916,1.958-1.916c1.128,0,1.951,0.794,1.951,1.916
						c0,1.121-0.823,1.923-1.951,1.923C59.376,74.314,58.546,73.512,58.546,72.391z M61.767,72.391c0-0.802-0.539-1.32-1.263-1.32
						c-0.724,0-1.27,0.518-1.27,1.32c0,0.802,0.546,1.327,1.27,1.327C61.228,73.719,61.767,73.193,61.767,72.391z"/>
					<path style="fill:#263238;" d="M64.982,70.958c0-0.284,0.22-0.482,0.483-0.482c0.255,0,0.468,0.199,0.468,0.482
						s-0.213,0.49-0.468,0.49C65.202,71.448,64.982,71.242,64.982,70.958z M64.982,73.825c0-0.284,0.22-0.483,0.483-0.483
						c0.255,0,0.468,0.199,0.468,0.483c0,0.284-0.213,0.489-0.468,0.489C65.202,74.314,64.982,74.109,64.982,73.825z"/>
				</g>
				<g>
					<path style="fill:#263238;" d="M55.517,88.495c0-1.469,1.121-2.54,2.633-2.54c0.766,0,1.433,0.263,1.887,0.773l-0.461,0.447
						c-0.383-0.404-0.851-0.589-1.397-0.589c-1.121,0-1.951,0.809-1.951,1.909s0.83,1.909,1.951,1.909
						c0.546,0,1.015-0.191,1.397-0.596l0.461,0.447c-0.454,0.511-1.121,0.78-1.895,0.78C56.638,91.035,55.517,89.964,55.517,88.495z
						"/>
					<path style="fill:#263238;" d="M60.443,89.099c0-1.121,0.83-1.916,1.987-1.916c0.674,0,1.234,0.276,1.533,0.802l-0.518,0.333
						c-0.241-0.369-0.61-0.54-1.022-0.54c-0.738,0-1.291,0.518-1.291,1.32c0,0.816,0.553,1.327,1.291,1.327
						c0.411,0,0.78-0.17,1.022-0.539l0.518,0.327c-0.298,0.525-0.858,0.809-1.533,0.809C61.274,91.021,60.443,90.22,60.443,89.099z"
						/>
					<path style="fill:#263238;" d="M66.425,87.665c0-0.284,0.22-0.482,0.483-0.482c0.255,0,0.468,0.199,0.468,0.482
						c0,0.284-0.213,0.49-0.468,0.49C66.646,88.155,66.425,87.949,66.425,87.665z M66.425,90.532c0-0.284,0.22-0.483,0.483-0.483
						c0.255,0,0.468,0.199,0.468,0.483c0,0.284-0.213,0.489-0.468,0.489C66.646,91.021,66.425,90.816,66.425,90.532z"/>
				</g>
				<g>
					<path style="fill:#263238;" d="M54.769,107.336l0.262-0.554c0.369,0.333,1,0.575,1.639,0.575c0.858,0,1.228-0.333,1.228-0.766
						c0-1.213-3.008-0.447-3.008-2.292c0-0.766,0.596-1.419,1.901-1.419c0.582,0,1.185,0.156,1.597,0.44l-0.234,0.567
						c-0.433-0.276-0.922-0.404-1.362-0.404c-0.844,0-1.206,0.355-1.206,0.788c0,1.213,3.008,0.454,3.008,2.278
						c0,0.759-0.61,1.412-1.923,1.412C55.911,107.96,55.166,107.705,54.769,107.336z"/>
					<path style="fill:#263238;" d="M63.03,104.143v3.761h-0.646v-0.567c-0.276,0.39-0.745,0.61-1.277,0.61
						c-0.972,0-1.618-0.532-1.618-1.639v-2.164h0.681v2.086c0,0.738,0.369,1.107,1.015,1.107c0.71,0,1.164-0.44,1.164-1.249v-1.944
						H63.03z"/>
					<path style="fill:#263238;" d="M68.218,106.023c0,1.149-0.802,1.923-1.901,1.923c-0.554,0-1.036-0.213-1.341-0.639v0.596
						h-0.653v-5.265h0.681v2.072c0.313-0.404,0.781-0.603,1.313-0.603C67.417,104.108,68.218,104.874,68.218,106.023z
						 M67.53,106.023c0-0.802-0.546-1.32-1.27-1.32c-0.716,0-1.263,0.518-1.263,1.32c0,0.802,0.546,1.327,1.263,1.327
						C66.984,107.35,67.53,106.825,67.53,106.023z"/>
					<path style="fill:#263238;" d="M67.858,109.095l0.22-0.525c0.135,0.113,0.333,0.177,0.553,0.177c0.362,0,0.56-0.227,0.56-0.66
						v-3.945h0.681v3.931c0,0.766-0.426,1.249-1.199,1.249C68.362,109.323,68.05,109.252,67.858,109.095z M69.072,102.979
						c0-0.248,0.199-0.447,0.461-0.447c0.263,0,0.461,0.191,0.461,0.433c0,0.255-0.191,0.454-0.461,0.454
						C69.271,103.419,69.072,103.228,69.072,102.979z"/>
					<path style="fill:#263238;" d="M74.554,106.25h-3.051c0.085,0.66,0.618,1.1,1.362,1.1c0.44,0,0.809-0.149,1.086-0.454
						l0.376,0.44c-0.341,0.397-0.859,0.61-1.483,0.61c-1.213,0-2.022-0.802-2.022-1.923c0-1.114,0.802-1.916,1.888-1.916
						c1.086,0,1.859,0.78,1.859,1.937C74.568,106.101,74.561,106.186,74.554,106.25z M71.503,105.761h2.413
						c-0.071-0.632-0.546-1.079-1.206-1.079C72.057,104.682,71.574,105.122,71.503,105.761z"/>
					<path style="fill:#263238;" d="M75.16,106.023c0-1.121,0.83-1.916,1.987-1.916c0.674,0,1.235,0.276,1.533,0.802l-0.518,0.333
						c-0.241-0.369-0.61-0.54-1.021-0.54c-0.738,0-1.291,0.518-1.291,1.32c0,0.816,0.553,1.327,1.291,1.327
						c0.411,0,0.78-0.17,1.021-0.54l0.518,0.327c-0.298,0.525-0.858,0.809-1.533,0.809C75.99,107.946,75.16,107.144,75.16,106.023z"
						/>
					<path style="fill:#263238;" d="M81.719,107.684c-0.206,0.177-0.518,0.262-0.823,0.262c-0.759,0-1.192-0.418-1.192-1.178v-2.065
						h-0.639v-0.561h0.639v-0.823h0.681v0.823h1.079v0.561h-1.079v2.037c0,0.404,0.213,0.631,0.589,0.631
						c0.199,0,0.39-0.064,0.532-0.177L81.719,107.684z"/>
					<path style="fill:#263238;" d="M84.126,104.59c0-0.284,0.22-0.483,0.483-0.483c0.255,0,0.468,0.199,0.468,0.483
						c0,0.284-0.213,0.49-0.468,0.49C84.346,105.08,84.126,104.874,84.126,104.59z M84.126,107.457c0-0.284,0.22-0.483,0.483-0.483
						c0.255,0,0.468,0.199,0.468,0.483c0,0.284-0.213,0.489-0.468,0.489C84.346,107.946,84.126,107.741,84.126,107.457z"/>
				</g>
				<g>
					<g>
						<path style="fill:#263238;" d="M146.392,73.38c0,0.144-15.924,0.26-35.562,0.26c-19.645,0-35.565-0.117-35.565-0.26
							c0-0.144,15.92-0.26,35.565-0.26C130.468,73.12,146.392,73.236,146.392,73.38z"/>
					</g>
				</g>
				<g>
					<g>
						<path style="fill:#263238;" d="M178.15,89.608c0,0.144-23.034,0.26-51.44,0.26c-28.417,0-51.445-0.117-51.445-0.26
							c0-0.144,23.029-0.26,51.445-0.26C155.117,89.348,178.15,89.464,178.15,89.608z"/>
					</g>
				</g>
				<g>
					<g>
						<path style="fill:#263238;" d="M140.107,105.71c0,0.018-0.162,0.036-0.472,0.053c-0.37,0.013-0.817,0.029-1.353,0.049
							c-1.259,0.021-2.939,0.049-4.977,0.083c-4.202,0.047-10.008,0.076-16.419,0.076c-6.414,0-12.22-0.029-16.422-0.076
							c-2.038-0.034-3.718-0.062-4.977-0.083c-0.537-0.019-0.983-0.035-1.353-0.049c-0.309-0.017-0.472-0.035-0.472-0.053
							c0-0.018,0.162-0.035,0.472-0.052c0.37-0.013,0.816-0.029,1.353-0.049c1.259-0.021,2.939-0.049,4.977-0.083
							c4.202-0.047,10.008-0.076,16.422-0.076c6.412,0,12.217,0.029,16.419,0.076c2.038,0.034,3.718,0.062,4.977,0.083
							c0.537,0.019,0.983,0.035,1.353,0.049C139.944,105.675,140.107,105.692,140.107,105.71z"/>
					</g>
				</g>
				<g>
					<g>
						<path style="fill:#E0E0E0;" d="M314.976,114.471c0,0.144-59.765,0.26-133.472,0.26c-73.733,0-133.485-0.117-133.485-0.26
							c0-0.144,59.752-0.26,133.485-0.26C255.21,114.21,314.976,114.327,314.976,114.471z"/>
					</g>
				</g>
				<g>
					<g>
						<path style="fill:#E0E0E0;" d="M314.976,96.906c0,0.144-59.788,0.26-133.523,0.26c-73.761,0-133.536-0.117-133.536-0.26
							c0-0.144,59.775-0.26,133.536-0.26C255.187,96.646,314.976,96.762,314.976,96.906z"/>
					</g>
				</g>
				<g>
					<g>
						<path style="fill:#E0E0E0;" d="M314.976,81.494c0,0.144-59.765,0.26-133.472,0.26c-73.733,0-133.485-0.117-133.485-0.26
							s59.752-0.26,133.485-0.26C255.21,81.234,314.976,81.35,314.976,81.494z"/>
					</g>
				</g>
				<g>
					<g>
						<path style="fill:#263238;" d="M81.101,135.895c0,0.144-3.795,0.26-8.475,0.26c-4.682,0-8.476-0.117-8.476-0.26
							s3.794-0.26,8.476-0.26C77.306,135.635,81.101,135.751,81.101,135.895z"/>
					</g>
				</g>
				<g>
					<g>
						<path style="fill:#263238;" d="M136.853,148.59c0,0.144-16.276,0.26-36.35,0.26c-20.08,0-36.353-0.117-36.353-0.26
							s16.273-0.26,36.353-0.26C120.576,148.329,136.853,148.446,136.853,148.59z"/>
					</g>
				</g>
			</g>
			<g>
				<g>
					<path style="fill:#263238;" d="M48.018,45.631c2.125-0.002,110.778-0.098,269.767-0.238l0.238,0v0.239
						c0.007,55.696,0.014,117.727,0.022,182.978v0.022v0.261l-0.26,0c-101.532-0.019-195.247-0.037-269.767-0.052l-0.209,0l0-0.209
						C47.937,117.21,48.016,47.339,48.018,45.631c0.002,1.707,0.082,71.579,0.209,183l-0.209-0.209
						c74.521-0.014,168.235-0.032,269.767-0.052l-0.26,0.26v-0.022c0.008-65.252,0.016-127.282,0.022-182.978l0.238,0.238
						C158.796,45.729,50.142,45.633,48.018,45.631z"/>
				</g>
			</g>
		</g>
	</g>
</g>
<g id="Desk">
	<g>
		<g>
			<path style="fill:#E8505B;" d="M327.552,287.585H206.474c-5.214,0-9.441-4.227-9.441-9.441v-81.767
				c0-2.365,1.917-4.282,4.282-4.282h131.397c2.365,0,4.282,1.917,4.282,4.282v81.767
				C336.993,283.358,332.766,287.585,327.552,287.585z"/>
		</g>
		<g>
			<g>
				<path style="fill:#263238;" d="M327.552,287.585c0,0,0.1-0.014,0.298-0.029c0.197-0.024,0.495-0.012,0.88-0.08
					c0.772-0.095,1.928-0.355,3.275-1.067c1.319-0.733,2.834-1.985,3.859-3.967c0.509-0.983,0.88-2.141,0.994-3.413
					c0.086-1.268,0.017-2.653,0.033-4.101c-0.02-11.627-0.048-28.432-0.083-49.196c-0.005-5.193-0.011-10.633-0.017-16.301
					c-0.003-2.834-0.005-5.726-0.008-8.672c-0.003-1.472-0.005-2.957-0.008-4.456c-0.01-1.432-0.858-2.827-2.143-3.511
					c-0.646-0.338-1.362-0.506-2.114-0.481c-0.77,0.001-1.543,0.001-2.319,0.002c-1.552,0.001-3.117,0.002-4.695,0.003
					c-3.155,0.002-6.36,0.004-9.612,0.006c-6.505,0.004-13.2,0.007-20.065,0.011c-27.463,0.006-57.653,0.013-89.343,0.02h-2.967
					h-1.48c-0.502,0.005-0.982-0.024-1.428,0.066c-1.85,0.292-3.314,2.023-3.312,3.881c-0.002,3.912-0.003,7.797-0.005,11.655
					c-0.001,7.718-0.003,15.323-0.004,22.796c-0.005,14.945-0.01,29.361-0.015,43.094c0.017,1.707-0.042,3.444,0.038,5.096
					c0.147,1.642,0.727,3.243,1.689,4.561c0.946,1.332,2.249,2.382,3.717,3.042c1.476,0.691,3.076,0.85,4.702,0.81
					c6.506,0.004,12.821,0.009,18.928,0.013c12.212,0.011,23.588,0.022,33.974,0.032c20.764,0.035,37.568,0.063,49.193,0.083
					c5.8,0.021,10.306,0.038,13.375,0.049c1.521,0.011,2.684,0.02,3.478,0.026C327.15,287.568,327.552,287.585,327.552,287.585
					s-0.401,0.018-1.185,0.027c-0.794,0.006-1.957,0.014-3.478,0.026c-3.068,0.011-7.574,0.028-13.375,0.049
					c-11.625,0.02-28.429,0.048-49.193,0.083c-10.386,0.01-21.762,0.02-33.974,0.032c-6.106,0.004-12.422,0.009-18.928,0.013
					c-1.612,0.045-3.36-0.121-4.892-0.845c-1.544-0.691-2.913-1.793-3.909-3.191c-1.011-1.383-1.624-3.067-1.781-4.794
					c-0.085-1.734-0.025-3.412-0.045-5.137c-0.005-13.733-0.01-28.149-0.015-43.094c-0.001-7.473-0.003-15.078-0.004-22.796
					c0.001-3.861,0.002-7.75,0.003-11.664c0.012-1.039,0.409-2.066,1.081-2.859c0.67-0.799,1.632-1.341,2.66-1.525
					c0.524-0.102,1.038-0.068,1.519-0.074h1.48h2.967c31.69,0.007,61.88,0.014,89.343,0.02c6.865,0.004,13.56,0.008,20.065,0.011
					c3.252,0.002,6.457,0.004,9.612,0.006c1.578,0.001,3.143,0.002,4.695,0.003c0.776,0.001,1.549,0.001,2.319,0.002
					c0.79-0.026,1.613,0.16,2.318,0.536c1.421,0.757,2.355,2.302,2.364,3.884c0,1.501,0,2.989,0,4.463
					c-0.003,2.946-0.005,5.837-0.008,8.672c-0.006,5.668-0.011,11.108-0.017,16.301c-0.035,20.764-0.063,37.569-0.083,49.196
					c-0.024,1.455,0.038,2.816-0.057,4.118c-0.125,1.295-0.51,2.472-1.035,3.467c-1.057,2.007-2.606,3.262-3.947,3.988
					c-1.37,0.704-2.54,0.949-3.318,1.027C327.955,287.605,327.552,287.585,327.552,287.585z"/>
			</g>
		</g>
		<g>
			<g>
				<path style="fill:#E8505B;" d="M279.134,287.585h-24.309c0,0-7.48,12.472,0,19.952h25.142
					C279.967,307.538,267.574,299.422,279.134,287.585z"/>
			</g>
			<g style="opacity:0.3;">
				<path d="M254.825,287.585l-1.232,2.473l22.28,1.746c0,0,1.831-2.638,3.261-4.219H254.825z"/>
			</g>
		</g>
		<g>
			<circle style="fill:#FAFAFA;" cx="269.985" cy="278.317" r="2.756"/>
		</g>
		<g>
			<g>
				<g>
					<rect x="203.743" y="197.356" style="fill:#FAFAFA;" width="126.539" height="72.826"/>
				</g>
				<g>
					<g>
						<path style="fill:#263238;" d="M330.283,270.182c0,0-0.014-0.453-0.021-1.316c-0.005-0.872-0.013-2.147-0.022-3.814
							c-0.012-3.351-0.029-8.266-0.051-14.576c-0.025-12.614-0.062-30.795-0.106-53.12l0.201,0.201
							c-33.919,0.016-78.218,0.037-126.529,0.06h-0.01l0.26-0.26c-0.006,25.771-0.013,50.398-0.018,72.826l-0.242-0.242
							c37.051,0.048,68.653,0.089,91.006,0.118c11.185,0.028,20.054,0.05,26.14,0.066c3.036,0.013,5.376,0.023,6.97,0.03
							c0.786,0.006,1.386,0.011,1.802,0.014C330.068,270.173,330.283,270.182,330.283,270.182s-0.195,0.01-0.592,0.014
							c-0.41,0.003-1.001,0.008-1.775,0.014c-1.583,0.007-3.906,0.017-6.921,0.03c-6.073,0.015-14.923,0.038-26.085,0.066
							c-22.393,0.029-54.051,0.07-91.167,0.118l-0.242,0v-0.243c-0.006-22.428-0.012-47.055-0.018-72.826v-0.26h0.26h0.01
							c48.311,0.023,92.61,0.044,126.529,0.06l0.201,0l0,0.201c-0.045,22.378-0.081,40.601-0.106,53.244
							c-0.022,6.291-0.039,11.19-0.051,14.531c-0.01,1.65-0.017,2.913-0.022,3.777C330.297,269.757,330.283,270.182,330.283,270.182
							z"/>
					</g>
				</g>
			</g>
			<g>
				<g>
					<g>
						<rect x="205.162" y="203.522" style="fill:#E8505B;" width="29.781" height="64.879"/>
					</g>
					<g style="opacity:0.4;">
						<rect x="205.162" y="228.077" width="29.769" height="5.807"/>
					</g>
					<g style="opacity:0.4;">
						<rect x="205.162" y="239.934" width="29.769" height="5.807"/>
					</g>
					<g style="opacity:0.4;">
						<rect x="205.162" y="254.097" width="29.769" height="6.423"/>
					</g>
					<g>
						<g>
							<path style="fill:#263238;" d="M229.764,236.93c0,0.144-4.287,0.26-9.575,0.26c-5.289,0-9.576-0.117-9.576-0.26
								c0-0.144,4.287-0.26,9.576-0.26C225.476,236.67,229.764,236.787,229.764,236.93z"/>
						</g>
					</g>
					<g>
						<g>
							<path style="fill:#263238;" d="M229.764,230.87c0,0.144-4.287,0.26-9.575,0.26c-5.289,0-9.576-0.117-9.576-0.26
								c0-0.144,4.287-0.26,9.576-0.26C225.476,230.609,229.764,230.726,229.764,230.87z"/>
						</g>
					</g>
					<g>
						<g>
							<path style="fill:#263238;" d="M234.942,260.52c0,0.144-6.606,0.26-14.754,0.26c-8.15,0-14.755-0.117-14.755-0.26
								s6.605-0.26,14.755-0.26C228.336,260.26,234.942,260.376,234.942,260.52z"/>
						</g>
					</g>
					<g>
						<g>
							<path style="fill:#263238;" d="M225.229,243.05c0,0.144-3.272,0.26-7.308,0.26c-4.037,0-7.308-0.117-7.308-0.26
								s3.271-0.26,7.308-0.26C221.957,242.79,225.229,242.907,225.229,243.05z"/>
						</g>
					</g>
					<g>
						<g>
							<path style="fill:#263238;" d="M227.29,256.612c0,0.144-3.272,0.261-7.308,0.261c-4.037,0-7.308-0.117-7.308-0.261
								c0-0.144,3.272-0.26,7.308-0.26C224.017,256.352,227.29,256.468,227.29,256.612z"/>
						</g>
					</g>
					<g>
						<g>
							<path style="fill:#263238;" d="M229.764,249.757c0,0.144-4.287,0.26-9.575,0.26c-5.289,0-9.576-0.117-9.576-0.26
								s4.287-0.26,9.576-0.26C225.476,249.497,229.764,249.613,229.764,249.757z"/>
						</g>
					</g>
					<g>
						<g>
							<path style="fill:#263238;" d="M229.764,264.322c0,0.144-4.287,0.26-9.575,0.26c-5.289,0-9.576-0.117-9.576-0.26
								c0-0.144,4.287-0.26,9.576-0.26C225.476,264.062,229.764,264.178,229.764,264.322z"/>
						</g>
					</g>
					<g>
						<g>
							<g>
								<path style="fill:#FAFAFA;" d="M219.649,207.898c-3.917,0-7.093,3.176-7.093,7.093c0,2.764,1.585,5.153,3.893,6.324v-2.169
									c0-1.845,1.496-3.34,3.34-3.34c1.845,0,3.34,1.496,3.34,3.34v2.022c2.155-1.217,3.612-3.525,3.612-6.176
									C226.741,211.073,223.566,207.898,219.649,207.898z M219.789,215.295c-1.381,0-2.5-1.119-2.5-2.5c0-1.38,1.119-2.5,2.5-2.5
									s2.5,1.119,2.5,2.5C222.289,214.176,221.169,215.295,219.789,215.295z"/>
							</g>
							<g>
								<path style="fill:#E8505B;" d="M219.789,215.804c-1.845,0-3.34,1.496-3.34,3.34v2.169c0.962,0.488,2.047,0.769,3.2,0.769
									c1.266,0,2.452-0.336,3.481-0.917v-2.022C223.129,217.3,221.634,215.804,219.789,215.804z"/>
							</g>
							<g>
								<path style="fill:#E8505B;" d="M219.789,210.296c-1.381,0-2.5,1.119-2.5,2.5c0,1.381,1.119,2.5,2.5,2.5s2.5-1.119,2.5-2.5
									C222.289,211.415,221.169,210.296,219.789,210.296z"/>
							</g>
						</g>
						<g>
							<g>
								<path style="fill:#FAFAFA;" d="M226.786,214.99c-0.058,0.003-0.031-0.632-0.32-1.707c-0.286-1.055-1.004-2.598-2.593-3.784
									c-0.787-0.58-1.775-1.07-2.91-1.263c-1.128-0.186-2.398-0.145-3.604,0.319c-1.206,0.436-2.356,1.259-3.172,2.395
									c-0.84,1.121-1.312,2.558-1.326,4.04c0.014,1.483,0.486,2.921,1.326,4.042c0.816,1.136,1.966,1.959,3.172,2.395
									c1.206,0.464,2.476,0.505,3.604,0.319c1.135-0.194,2.123-0.684,2.91-1.264c1.589-1.187,2.307-2.73,2.593-3.784
									C226.756,215.622,226.729,214.987,226.786,214.99c0.018,0,0.028,0.156,0.03,0.455c0.008,0.299-0.029,0.744-0.153,1.301
									c-0.233,1.099-0.922,2.738-2.566,4.028c-0.814,0.63-1.851,1.17-3.054,1.395c-1.195,0.218-2.55,0.191-3.847-0.292
									c-1.296-0.455-2.536-1.328-3.42-2.544c-0.908-1.2-1.422-2.75-1.435-4.344c0.014-1.594,0.528-3.143,1.436-4.342
									c0.883-1.216,2.124-2.089,3.419-2.544c1.297-0.483,2.651-0.51,3.846-0.292c1.204,0.225,2.24,0.765,3.054,1.395
									c1.644,1.289,2.333,2.928,2.566,4.028c0.124,0.557,0.161,1.002,0.153,1.301C226.814,214.835,226.804,214.99,226.786,214.99z
									"/>
							</g>
						</g>
					</g>
				</g>
				<g>
					<rect x="234.943" y="225.228" style="fill:#EBEBEB;" width="93.251" height="8.725"/>
				</g>
				<g>
					<rect x="234.943" y="203.522" style="fill:#F5F5F5;" width="93.251" height="4.376"/>
				</g>
				<g>
					<path style="fill:#E0E0E0;" d="M301.212,206.545h-62.97c-0.398,0-0.72-0.322-0.72-0.72v-0.273c0-0.398,0.322-0.72,0.72-0.72
						h62.97c0.398,0,0.72,0.322,0.72,0.72v0.273C301.932,206.223,301.61,206.545,301.212,206.545z"/>
				</g>
				<g>
					<g>
						<path style="fill:#E0E0E0;" d="M310.205,206.545h-4.189c-0.398,0-0.72-0.322-0.72-0.72v-0.273c0-0.398,0.322-0.72,0.72-0.72
							h4.189c0.398,0,0.72,0.322,0.72,0.72v0.273C310.924,206.223,310.602,206.545,310.205,206.545z"/>
					</g>
					<g>
						<rect x="313.913" y="204.709" style="fill:#E0E0E0;" width="0.705" height="0.705"/>
					</g>
					<g>
						<rect x="313.913" y="205.644" style="fill:#E0E0E0;" width="0.705" height="0.705"/>
					</g>
					<g>
						<rect x="315.01" y="204.709" style="fill:#E0E0E0;" width="0.705" height="0.705"/>
					</g>
					<g>
						<rect x="315.01" y="205.644" style="fill:#E0E0E0;" width="0.705" height="0.705"/>
					</g>
				</g>
				<g>
					<rect x="234.943" y="207.898" style="fill:#E0E0E0;" width="93.251" height="8.725"/>
				</g>
				<g>
					<rect x="237.522" y="210.746" style="fill:#E8505B;" width="2.64" height="2.64"/>
				</g>
				<g>
					<g>
						<path style="fill:#263238;" d="M280.949,212.058c0,0.144-8.559,0.26-19.115,0.26c-10.559,0-19.116-0.117-19.116-0.26
							s8.557-0.26,19.116-0.26C272.39,211.798,280.949,211.914,280.949,212.058z"/>
					</g>
				</g>
				<g>
					<g>
						<path style="fill:#263238;" d="M316.976,211.986c0,0.144-0.964,0.26-2.154,0.26c-1.19,0-2.154-0.117-2.154-0.26
							c0-0.144,0.964-0.26,2.154-0.26C316.011,211.726,316.976,211.842,316.976,211.986z"/>
					</g>
				</g>
				<g>
					<rect x="234.943" y="233.884" style="fill:#FAFAFA;" width="93.251" height="8.725"/>
				</g>
				<g>
					<rect x="237.167" y="236.732" style="fill:#E8505B;" width="2.665" height="2.64"/>
				</g>
				<g>
					<g>
						<path style="fill:#263238;" d="M281.01,238.044c0,0.144-8.641,0.26-19.298,0.26c-10.66,0-19.299-0.117-19.299-0.26
							c0-0.144,8.639-0.26,19.299-0.26C272.369,237.784,281.01,237.9,281.01,238.044z"/>
					</g>
				</g>
				<g>
					<g>
						<path style="fill:#263238;" d="M317.382,237.972c0,0.144-0.974,0.26-2.174,0.26c-1.201,0-2.174-0.117-2.174-0.26
							c0-0.144,0.973-0.26,2.174-0.26C316.408,237.712,317.382,237.829,317.382,237.972z"/>
					</g>
				</g>
				<g>
					<rect x="234.943" y="242.481" style="fill:#E0E0E0;" width="93.251" height="8.725"/>
				</g>
				<g>
					<rect x="237.167" y="245.329" style="fill:#E8505B;" width="2.665" height="2.64"/>
				</g>
				<g>
					<g>
						<path style="fill:#263238;" d="M281.01,246.641c0,0.144-8.641,0.26-19.298,0.26c-10.66,0-19.299-0.117-19.299-0.26
							s8.639-0.26,19.299-0.26C272.369,246.381,281.01,246.497,281.01,246.641z"/>
					</g>
				</g>
				<g>
					<g>
						<path style="fill:#263238;" d="M317.382,246.569c0,0.144-0.974,0.26-2.174,0.26c-1.201,0-2.174-0.117-2.174-0.26
							c0-0.144,0.973-0.26,2.174-0.26C316.408,246.309,317.382,246.426,317.382,246.569z"/>
					</g>
				</g>
				<g>
					<rect x="234.943" y="251.078" style="fill:#FAFAFA;" width="93.251" height="8.725"/>
				</g>
				<g>
					<rect x="237.167" y="253.926" style="fill:#E8505B;" width="2.665" height="2.64"/>
				</g>
				<g>
					<g>
						<path style="fill:#263238;" d="M281.01,255.238c0,0.144-8.641,0.26-19.298,0.26c-10.66,0-19.299-0.117-19.299-0.26
							c0-0.144,8.639-0.26,19.299-0.26C272.369,254.978,281.01,255.095,281.01,255.238z"/>
					</g>
				</g>
				<g>
					<g>
						<path style="fill:#263238;" d="M317.382,255.167c0,0.144-0.974,0.26-2.174,0.26c-1.201,0-2.174-0.117-2.174-0.26
							s0.973-0.26,2.174-0.26C316.408,254.906,317.382,255.023,317.382,255.167z"/>
					</g>
				</g>
				<g>
					<rect x="234.943" y="259.675" style="fill:#EBEBEB;" width="93.251" height="8.725"/>
				</g>
				<g>
					<rect x="237.167" y="262.523" style="fill:#E8505B;" width="2.665" height="2.64"/>
				</g>
				<g>
					<g>
						<path style="fill:#263238;" d="M281.01,263.835c0,0.144-8.641,0.26-19.298,0.26c-10.66,0-19.299-0.116-19.299-0.26
							c0-0.144,8.639-0.26,19.299-0.26C272.369,263.575,281.01,263.692,281.01,263.835z"/>
					</g>
				</g>
				<g>
					<g>
						<path style="fill:#263238;" d="M317.382,263.763c0,0.144-0.974,0.26-2.174,0.26c-1.201,0-2.174-0.117-2.174-0.26
							c0-0.144,0.973-0.26,2.174-0.26C316.408,263.503,317.382,263.62,317.382,263.763z"/>
					</g>
				</g>
				<g>
					<rect x="234.931" y="216.513" style="fill:#FAFAFA;" width="93.264" height="8.725"/>
				</g>
				<g>
					<rect x="237.522" y="219.361" style="fill:#E8505B;" width="2.64" height="2.64"/>
				</g>
				<g>
					<g>
						<path style="fill:#263238;" d="M264.597,220.673c0,0.144-4.898,0.26-10.939,0.26c-6.043,0-10.94-0.117-10.94-0.26
							s4.897-0.26,10.94-0.26C259.699,220.413,264.597,220.529,264.597,220.673z"/>
					</g>
				</g>
				<g>
					<g>
						<path style="fill:#263238;" d="M316.976,220.926c0,0.144-0.964,0.26-2.154,0.26c-1.19,0-2.154-0.117-2.154-0.26
							s0.964-0.26,2.154-0.26C316.011,220.665,316.976,220.782,316.976,220.926z"/>
					</g>
				</g>
				<g>
					<g>
						<path style="fill:#263238;" d="M316.976,229.396c0,0.144-0.964,0.26-2.154,0.26c-1.19,0-2.154-0.117-2.154-0.26
							c0-0.144,0.964-0.26,2.154-0.26C316.011,229.136,316.976,229.253,316.976,229.396z"/>
					</g>
				</g>
				<g>
					<rect x="237.522" y="228.077" style="fill:#E8505B;" width="2.64" height="2.64"/>
				</g>
				<g>
					<g>
						<path style="fill:#263238;" d="M295.431,229.389c0,0.144-11.801,0.26-26.355,0.26c-14.559,0-26.358-0.117-26.358-0.26
							s11.799-0.26,26.358-0.26C283.63,229.128,295.431,229.245,295.431,229.389z"/>
					</g>
				</g>
				<g>
					<path style="fill:#263238;" d="M209.315,201.376c0,0.439-0.356,0.795-0.795,0.795c-0.439,0-0.795-0.356-0.795-0.795
						c0-0.439,0.356-0.796,0.795-0.796C208.959,200.581,209.315,200.937,209.315,201.376z"/>
				</g>
				<g>
					<path style="fill:#263238;" d="M212.416,201.376c0,0.439-0.356,0.795-0.795,0.795s-0.796-0.356-0.796-0.795
						c0-0.439,0.356-0.796,0.796-0.796S212.416,200.937,212.416,201.376z"/>
				</g>
				<g>
					<path style="fill:#263238;" d="M215.516,201.376c0,0.439-0.356,0.795-0.795,0.795s-0.795-0.356-0.795-0.795
						c0-0.439,0.356-0.796,0.795-0.796S215.516,200.937,215.516,201.376z"/>
				</g>
				<g>
					<g>
						<path style="fill:#263238;" d="M328.195,268.4c-0.003-1.596-0.046-26.842-0.12-69.262l0.119,0.12
							c-32.859,0.01-75.968,0.023-123.024,0.037h-0.009l0.156-0.156c-0.004,24.496-0.007,47.921-0.01,69.262l-0.146-0.146
							C277.104,268.34,325.986,268.398,328.195,268.4c-2.208,0.003-51.091,0.061-123.033,0.146l-0.146,0l0-0.146
							c-0.003-21.341-0.007-44.766-0.011-69.262v-0.156h0.156h0.009c47.056,0.014,90.164,0.027,123.024,0.037h0.12l0,0.12
							C328.241,241.558,328.197,266.805,328.195,268.4z"/>
					</g>
				</g>
			</g>
		</g>
	</g>
	<g>
		<g>
			<polygon style="fill:#455A64;" points="388.342,466.863 380.821,466.863 364.046,316.237 373.914,316.237 			"/>
		</g>
		<g>
			<polygon style="fill:#455A64;" points="340.79,466.863 333.269,466.863 316.368,316.237 326.236,316.237 			"/>
		</g>
		<g>
			<polygon style="fill:#455A64;" points="390.649,316.237 186.506,316.237 125.567,316.237 125.567,307.538 390.649,307.538 			"/>
		</g>
		<g>
			<polygon style="fill:#263238;" points="180.586,466.863 188.106,466.863 204.241,316.237 194.373,316.237 			"/>
		</g>
		<g>
			<polygon style="fill:#263238;" points="116.074,466.863 123.594,466.863 140.479,316.237 130.611,316.237 			"/>
		</g>
		<g>
			<rect x="125.567" y="307.538" style="fill:#263238;" width="81.673" height="8.7"/>
		</g>
		<g>
			<rect x="244.642" y="304.937" style="fill:#263238;" width="56.396" height="2.601"/>
		</g>
	</g>
</g>
<g id="Character">
	<g>
		<g>
			<g>
				<g>
					<g>
						<path style="fill:#E8505B;" d="M365.069,432.59l5.335,29.306l-36.427,6.824c-0.439-3.519,17.098-14.036,17.098-14.036
							l-4.189-18.636L365.069,432.59z"/>
					</g>
				</g>
				<g style="opacity:0.6;">
					<g>
						<g>
							<path style="fill:#FFFFFF;" d="M362.042,450.995c0.741,0.061,1.377,0.762,1.347,1.505c-0.03,0.743-0.738,1.396-1.48,1.348
								c-0.742-0.048-1.531-0.866-1.418-1.601c0.113-0.735,0.986-1.456,1.695-1.231"/>
						</g>
					</g>
				</g>
				<g style="opacity:0.6;">
					<g>
						<path style="fill:#FFFFFF;" d="M370.403,461.896l-0.653-2.933l-34.681,7.639c0,0-1.49,1.009-1.092,2.117L370.403,461.896z"/>
					</g>
				</g>
				<g>
					<g>
						<g>
							<path style="fill:#263238;" d="M350.449,454.609c0.039,0.177,0.944,0.091,1.926,0.499c0.993,0.382,1.589,1.068,1.739,0.967
								c0.158-0.065-0.307-1.079-1.505-1.552C351.416,454.039,350.38,454.453,350.449,454.609z"/>
						</g>
					</g>
				</g>
				<g>
					<g>
						<g>
							<path style="fill:#263238;" d="M346.925,456.905c-0.008,0.18,0.819,0.338,1.564,0.977c0.764,0.617,1.069,1.402,1.244,1.361
								c0.173-0.003,0.1-1.068-0.841-1.845C347.957,456.613,346.897,456.735,346.925,456.905z"/>
						</g>
					</g>
				</g>
				<g>
					<g>
						<g>
							<path style="fill:#263238;" d="M345.611,461.884c0.169,0.008,0.25-0.927-0.389-1.816c-0.633-0.893-1.544-1.12-1.591-0.958
								c-0.073,0.165,0.565,0.587,1.079,1.324C345.24,461.159,345.431,461.9,345.611,461.884z"/>
						</g>
					</g>
				</g>
				<g>
					<g>
						<g>
							<path style="fill:#263238;" d="M349.966,450.256c0.105,0.148,0.875-0.25,1.893-0.37c1.016-0.141,1.861,0.05,1.925-0.12
								c0.079-0.148-0.808-0.663-2.006-0.505C350.581,449.41,349.852,450.133,349.966,450.256z"/>
						</g>
					</g>
				</g>
				<g>
					<g>
						<g>
							<path style="fill:#263238;" d="M350.024,445.771c0.012,0.074,0.735,0.052,1.823-0.351c0.541-0.202,1.165-0.508,1.799-0.944
								c0.316-0.218,0.634-0.469,0.943-0.752c0.148-0.139,0.326-0.285,0.471-0.532c0.162-0.222,0.186-0.715-0.096-0.961
								c-0.239-0.245-0.591-0.304-0.856-0.261c-0.27,0.042-0.477,0.137-0.666,0.223c-0.387,0.174-0.742,0.38-1.061,0.602
								c-0.637,0.447-1.127,0.953-1.475,1.419c-0.699,0.941-0.863,1.659-0.795,1.683c0.091,0.043,0.398-0.59,1.138-1.398
								c0.369-0.402,0.854-0.837,1.455-1.221c0.301-0.191,0.631-0.368,0.987-0.519c0.367-0.174,0.695-0.238,0.826-0.085
								c0.048,0.059,0.058,0.084-0.002,0.212c-0.064,0.12-0.201,0.251-0.346,0.389c-0.283,0.271-0.573,0.514-0.861,0.731
								c-0.576,0.434-1.144,0.763-1.637,1.006C350.68,445.498,350.003,445.676,350.024,445.771z"/>
						</g>
					</g>
				</g>
				<g>
					<g>
						<g>
							<path style="fill:#263238;" d="M350.303,445.983c0.068,0.016,0.302-0.688,0.151-1.852c-0.077-0.577-0.266-1.258-0.623-1.951
								c-0.18-0.345-0.403-0.691-0.672-1.021c-0.281-0.32-0.632-0.753-1.336-0.703c-0.363,0.054-0.61,0.392-0.667,0.652
								c-0.074,0.269-0.059,0.485-0.062,0.704c0.013,0.438,0.099,0.854,0.229,1.229c0.26,0.754,0.698,1.339,1.132,1.738
								c0.889,0.811,1.671,0.884,1.674,0.821c0.043-0.1-0.642-0.328-1.356-1.133c-0.352-0.397-0.702-0.942-0.898-1.606
								c-0.099-0.331-0.161-0.689-0.164-1.06c-0.016-0.398,0.071-0.737,0.223-0.725c0.181-0.037,0.543,0.197,0.75,0.478
								c0.248,0.292,0.46,0.598,0.637,0.904c0.352,0.615,0.569,1.227,0.694,1.754C350.267,445.272,350.201,445.974,350.303,445.983z
								"/>
						</g>
					</g>
				</g>
			</g>
		</g>
		<g>
			<g>
				<g>
					<g>
						<path style="fill:#E8505B;" d="M322.612,437.314l5.723,29.232l-36.333,7.306c-0.485-3.513,16.91-14.262,16.91-14.262
							l-4.435-18.579L322.612,437.314z"/>
					</g>
				</g>
				<g style="opacity:0.6;">
					<g>
						<g>
							<path style="fill:#FFFFFF;" d="M319.831,455.757c0.742,0.051,1.387,0.744,1.366,1.487c-0.02,0.743-0.719,1.405-1.462,1.367
								c-0.742-0.038-1.542-0.846-1.439-1.582c0.103-0.736,0.967-1.469,1.678-1.254"/>
						</g>
					</g>
				</g>
				<g style="opacity:0.6;">
					<g>
						<path style="fill:#FFFFFF;" d="M328.335,466.546l-0.692-2.924l-34.577,8.099c0,0-1.476,1.029-1.064,2.132L328.335,466.546z"/>
					</g>
				</g>
				<g>
					<g>
						<g>
							<path style="fill:#263238;" d="M308.286,459.524c0.042,0.176,0.945,0.078,1.932,0.473c0.998,0.369,1.603,1.047,1.752,0.944
								c0.157-0.067-0.321-1.075-1.525-1.532C309.245,458.942,308.215,459.369,308.286,459.524z"/>
						</g>
					</g>
				</g>
				<g>
					<g>
						<g>
							<path style="fill:#263238;" d="M304.792,461.867c-0.006,0.18,0.823,0.327,1.577,0.957c0.772,0.607,1.087,1.388,1.262,1.345
								c0.172-0.006,0.086-1.07-0.866-1.834C305.821,461.561,304.762,461.697,304.792,461.867z"/>
						</g>
					</g>
				</g>
				<g>
					<g>
						<g>
							<path style="fill:#263238;" d="M303.545,466.863c0.169,0.006,0.237-0.931-0.413-1.811c-0.645-0.885-1.559-1.1-1.604-0.937
								c-0.071,0.166,0.573,0.579,1.096,1.31C303.164,466.143,303.366,466.881,303.545,466.863z"/>
						</g>
					</g>
				</g>
				<g>
					<g>
						<g>
							<path style="fill:#263238;" d="M307.745,455.178c0.107,0.147,0.872-0.262,1.888-0.395c1.014-0.154,1.862,0.026,1.923-0.145
								c0.077-0.149-0.817-0.653-2.012-0.478C308.349,454.324,307.63,455.056,307.745,455.178z"/>
						</g>
					</g>
				</g>
				<g>
					<g>
						<g>
							<path style="fill:#263238;" d="M307.744,450.693c0.013,0.074,0.736,0.042,1.818-0.375c0.538-0.209,1.158-0.523,1.786-0.968
								c0.313-0.223,0.628-0.477,0.933-0.765c0.146-0.141,0.323-0.29,0.463-0.538c0.159-0.225,0.176-0.718-0.108-0.96
								c-0.242-0.242-0.595-0.296-0.859-0.249c-0.27,0.045-0.476,0.143-0.663,0.232c-0.385,0.18-0.737,0.39-1.053,0.616
								c-0.631,0.455-1.114,0.968-1.456,1.439c-0.686,0.95-0.84,1.671-0.773,1.693c0.092,0.042,0.391-0.596,1.119-1.413
								c0.363-0.406,0.843-0.848,1.439-1.241c0.299-0.195,0.626-0.376,0.98-0.532c0.365-0.178,0.691-0.247,0.825-0.096
								c0.049,0.058,0.059,0.083,0.001,0.212c-0.062,0.121-0.198,0.254-0.341,0.394c-0.279,0.274-0.566,0.521-0.851,0.743
								c-0.571,0.442-1.133,0.778-1.624,1.028C308.396,450.411,307.721,450.598,307.744,450.693z"/>
						</g>
					</g>
				</g>
				<g>
					<g>
						<g>
							<path style="fill:#263238;" d="M308.026,450.901c0.068,0.015,0.292-0.692,0.126-1.854c-0.084-0.576-0.282-1.255-0.649-1.942
								c-0.185-0.342-0.412-0.685-0.686-1.012c-0.285-0.316-0.641-0.745-1.345-0.685c-0.362,0.059-0.604,0.4-0.658,0.66
								c-0.071,0.27-0.052,0.486-0.053,0.705c0.019,0.438,0.11,0.852,0.245,1.226c0.27,0.75,0.716,1.33,1.155,1.723
								c0.899,0.799,1.682,0.862,1.685,0.799c0.041-0.101-0.646-0.319-1.371-1.115c-0.357-0.392-0.714-0.933-0.919-1.594
								c-0.103-0.329-0.17-0.687-0.178-1.058c-0.021-0.398,0.061-0.738,0.214-0.728c0.18-0.039,0.546,0.19,0.756,0.468
								c0.252,0.288,0.467,0.592,0.649,0.896c0.36,0.611,0.585,1.219,0.717,1.745C307.98,450.191,307.924,450.893,308.026,450.901z"
								/>
						</g>
					</g>
				</g>
			</g>
		</g>
		<g>
			<g>
				<path style="fill:#263238;" d="M343.814,443.156l-14.128-78.659c-0.697-3.882-0.361-7.879,0.974-11.59l0,0
					c3.211-8.924,11.677-14.875,21.161-14.875h49.836l32.565,14.432l0,0c0,11.772-10.031,21.047-21.767,20.126l-53.181-4.172
					l7.663,71.249L343.814,443.156z"/>
			</g>
			<g>
				<path style="fill:#263238;" d="M302.591,447.321l-16.123-82.824c-0.697-3.882-0.361-7.879,0.974-11.59l0,0
					c3.211-8.924,11.677-14.875,21.161-14.875h49.836l32.565,14.432v21.833l-74.948-5.88l9.817,73.601L302.591,447.321z"/>
			</g>
			<g>
				<g>
					<path style="fill:#455A64;" d="M325.875,442.018c-0.018,0.002-0.076-0.301-0.171-0.882c-0.096-0.626-0.225-1.473-0.388-2.542
						c-0.321-2.259-0.775-5.445-1.332-9.361c-1.081-7.952-2.563-18.86-4.2-30.91c-1.516-11.572-2.894-22.091-3.914-29.881
						l0.083,0.133c-3.57-2.455-6.287-4.654-8.232-6.086c-0.942-0.697-1.688-1.249-2.235-1.655c-0.514-0.374-0.783-0.574-0.772-0.59
						c0.005-0.008,0.08,0.031,0.22,0.115c0.166,0.104,0.367,0.23,0.614,0.385c0.535,0.346,1.311,0.875,2.297,1.575
						c1.983,1.382,4.744,3.54,8.318,5.94l0.072,0.048l0.012,0.085c1.057,7.786,2.484,18.297,4.054,29.863
						c1.578,12.057,3.007,22.972,4.049,30.93c0.489,3.926,0.886,7.119,1.168,9.383c0.123,1.074,0.22,1.926,0.292,2.555
						C325.869,441.708,325.893,442.016,325.875,442.018z"/>
				</g>
			</g>
		</g>
		<g>
			<path style="fill:#FFBE9D;" d="M278.688,305.121l3.535-6.625c0.414-0.617,1.121-0.972,1.862-0.937l1.58,0.074l2.69-2.511h3.142
				l2.418-1.614l9.327,1.794l7.674,2.064l-4.369,8.674l-4.381-0.923l-7.354-0.126c-2.128-0.036-4.16-0.892-5.673-2.388l0,0
				c-1.307-1.293-3.072-2.018-4.91-2.018l0,0C284.232,300.583,281.921,305.746,278.688,305.121z"/>
		</g>
		<g>
			<g>
				<g>
					<path style="fill:#FFBE9D;" d="M384.949,205.383l0.147,47.885l-20.544,0.98l-0.594-11.647c0,0-7.297,1.449-9.179-5.328
						c-1.203-4.329-0.902-37.783-0.902-37.783L384.949,205.383z"/>
				</g>
				<g>
					<path style="fill:#263238;" d="M385.31,242.885c2.187-2.273,3.196-5.435,3.707-8.547c0.511-3.112,0.596-6.292,1.28-9.371
						c0.718-3.234,2.083-6.297,2.778-9.536c0.695-3.238,0.631-6.864-1.287-9.564c0,0-1.266-3.71-6.692-4.011
						c0,0-4.607-7.46-11.414-6.808c-9.254,0.886-9.506-1.837-15.881-2.842c-5.959-0.939-7.066,4.375-7.066,4.375
						s-3.276,2.433-3.427,5.935c-0.001,0.031-0.003,0.063-0.004,0.094c-0.133,3.551,2.156,6.755,5.522,7.894
						c0.411,0.139,0.824,0.274,1.237,0.407c1.165,0.376,2.381,0.77,3.248,1.633c1.289,1.284,1.499,3.283,1.433,5.101
						c-0.066,1.818-0.326,3.699,0.289,5.411c0.21,0.583,0.711,1.223,1.31,1.064c0.714-0.19,0.682-1.185,0.752-1.921
						c0.203-2.143,2.958-3.771,4.896-2.202c1.211,0.981,1.654,2.582,0.983,3.988c-0.719,1.508-2.289,2.688-2.594,4.359
						c-0.513,2.815,2.791,5.278,4.05,6.809c0.444,0.54,0.906,1.062,1.441,1.513c2.726,2.295,5.398,5.469,8.986,6.71
						c2.404,0.832,5.33,0.62,7.158-1.149"/>
				</g>
			</g>
		</g>
		<g>
			<g>
				<path style="fill:#E8505B;" d="M360.952,251.933c-4.529,3.234-2.667,11.914-2.728,16.468
					c-0.137,10.164,0.829,19.699,1.361,21.294c0.777,2.331,3.593,22.193,3.593,22.193l-4.737,26.144c0,0,6.118,15.612,32.565,15.457
					l13.18-3.148c6.587-1.573,11.032-7.728,10.456-14.475l-2.999-35.11l-3.994-28.495c-1.045-14.951-10.41-22.906-22.377-22.056
					L360.952,251.933z"/>
			</g>
			<g style="opacity:0.5;">
				<g>
					<path d="M371.807,350.075c-2.893-1.504,0.994-30.737,4.374-45.706c1.318-5.836,3.068-11.871,7.215-16.184
						c3.266-3.397,7.759-5.407,12.356-6.44c4.597-1.033,8.335-1.162,13.045-1.287l4.148,66.54
						C412.945,346.998,384.259,356.55,371.807,350.075z"/>
				</g>
			</g>
			<g>
				<path style="fill:#E8505B;" d="M360.952,251.933c0,0-8.602,1.115-12.857,9.942c-3.332,6.912-17.901,35.686-17.901,35.686
					l-22.274-1.485l-4.453,10.161l30.564,8.195l0,0c6.295,1.205,11.797-2.636,14.9-8.314l12.8-23.418L360.952,251.933z"/>
			</g>
			<g>
				<path style="fill:#E8505B;" d="M363.177,251.933c0,0-0.56-5.088,0.175-5.961c0.734-0.873,22.831-0.727,22.831-0.727l1.163,5.834
					l-2.46,4.363l-21.019,1.828L363.177,251.933z"/>
			</g>
			<g>
				<g>
					<path style="fill:#263238;" d="M332.841,302.581c-0.104,0.09-0.962-0.776-1.619-2.11c-0.664-1.331-0.834-2.537-0.7-2.566
						c0.145-0.037,0.531,1.063,1.166,2.335C332.316,301.515,332.959,302.488,332.841,302.581z"/>
				</g>
			</g>
			<g>
				<g>
					<path style="fill:#263238;" d="M364.749,274.748c0.131,0.059-1.344,3.594-3.294,7.894c-1.951,4.301-3.638,7.739-3.769,7.679
						c-0.131-0.059,1.344-3.593,3.294-7.894C362.931,278.127,364.618,274.689,364.749,274.748z"/>
				</g>
			</g>
			<g>
				<g>
					<path style="fill:#263238;" d="M387.159,250.148c0.016-0.005,0.128,0.226,0.13,0.699c0.022,0.449-0.255,1.276-1.171,1.595
						l-0.01,0.003l-0.027,0.002c-2.315,0.145-6.038,0.318-10.229,0.467c-3.564,0.127-6.765,0.212-9.129,0.248
						c-1.185-0.025-2.147-0.279-2.737-0.595c-0.593-0.319-0.828-0.618-0.81-0.634c0.029-0.037,0.307,0.203,0.896,0.45
						c0.589,0.245,1.504,0.432,2.656,0.411c2.299-0.129,5.545-0.273,9.101-0.4c4.198-0.149,7.929-0.241,10.247-0.261l-0.037,0.005
						c0.744-0.219,1.055-0.885,1.082-1.303C387.171,250.4,387.119,250.153,387.159,250.148z"/>
				</g>
			</g>
			<g>
				<g>
					<path style="fill:#263238;" d="M350.377,258.336c0.128,0.066-4.25,8.777-9.777,19.455
						c-5.529,10.681-10.113,19.284-10.241,19.217c-0.128-0.066,4.25-8.776,9.779-19.457
						C345.664,266.874,350.25,258.27,350.377,258.336z"/>
				</g>
			</g>
			<g>
				<g>
					<path style="fill:#FAFAFA;" d="M358.755,264.738c0.003-0.029,0.198-0.056,0.516,0.08c0.306,0.133,0.751,0.457,0.954,1.076
						c0.208,0.612,0.002,1.499-0.712,2.018c-0.357,0.264-0.832,0.367-1.273,0.359c-0.445-0.003-0.872-0.085-1.288-0.115
						c-0.816-0.093-1.552,0.242-2.034,0.744c-0.49,0.499-0.667,1.139-0.659,1.673c0.026,1.099,0.604,1.639,0.523,1.687
						c-0.007,0.056-0.748-0.412-0.891-1.668c-0.063-0.603,0.108-1.401,0.675-2.018c0.535-0.619,1.477-1.049,2.424-0.937
						c0.901,0.092,1.706,0.271,2.248-0.118c0.55-0.369,0.756-1.045,0.632-1.527c-0.118-0.503-0.453-0.829-0.697-0.996
						C358.922,264.823,358.746,264.779,358.755,264.738z"/>
				</g>
			</g>
			<g>
				<g>
					<path style="fill:#FAFAFA;" d="M388.282,265.064c0.003-0.029,0.198-0.056,0.516,0.08c0.306,0.133,0.751,0.457,0.955,1.076
						c0.208,0.612,0.002,1.499-0.712,2.018c-0.357,0.264-0.832,0.367-1.273,0.359c-0.445-0.003-0.872-0.085-1.288-0.115
						c-0.816-0.093-1.552,0.242-2.034,0.744c-0.49,0.499-0.667,1.139-0.659,1.673c0.026,1.099,0.604,1.639,0.523,1.687
						c-0.007,0.056-0.748-0.412-0.891-1.668c-0.063-0.603,0.108-1.4,0.675-2.018c0.535-0.619,1.477-1.049,2.423-0.938
						c0.901,0.092,1.706,0.271,2.248-0.118c0.549-0.369,0.756-1.045,0.632-1.527c-0.118-0.503-0.453-0.829-0.697-0.996
						C388.45,265.149,388.273,265.105,388.282,265.064z"/>
				</g>
			</g>
			<g>
				<g>
					<path style="fill:#FAFAFA;" d="M387.924,286.414c0.027,0.01,0.007,0.206-0.201,0.482c-0.202,0.266-0.623,0.62-1.273,0.669
						c-0.644,0.056-1.456-0.357-1.789-1.175c-0.171-0.41-0.157-0.896-0.044-1.322c0.109-0.431,0.291-0.827,0.42-1.223
						c0.285-0.77,0.137-1.565-0.236-2.152c-0.367-0.595-0.946-0.921-1.466-1.04c-1.073-0.238-1.736,0.194-1.763,0.104
						c-0.052-0.02,0.579-0.628,1.833-0.465c0.6,0.083,1.334,0.44,1.798,1.138c0.473,0.667,0.665,1.685,0.33,2.577
						c-0.305,0.853-0.672,1.592-0.424,2.211c0.227,0.622,0.834,0.984,1.331,0.979c0.516,0.006,0.914-0.241,1.134-0.438
						C387.801,286.557,387.886,286.396,387.924,286.414z"/>
				</g>
			</g>
			<g>
				<g>
					<path style="fill:#FAFAFA;" d="M374.978,316.7c0.027,0.009,0.007,0.206-0.201,0.482c-0.202,0.265-0.623,0.62-1.273,0.669
						c-0.644,0.056-1.456-0.357-1.789-1.175c-0.171-0.41-0.157-0.896-0.044-1.322c0.109-0.431,0.291-0.827,0.42-1.223
						c0.285-0.77,0.137-1.565-0.236-2.152c-0.367-0.595-0.947-0.921-1.466-1.04c-1.073-0.238-1.736,0.194-1.763,0.104
						c-0.053-0.02,0.579-0.628,1.833-0.465c0.6,0.083,1.334,0.44,1.798,1.138c0.473,0.667,0.665,1.685,0.33,2.578
						c-0.305,0.853-0.672,1.592-0.423,2.211c0.227,0.622,0.834,0.984,1.331,0.979c0.516,0.006,0.914-0.242,1.134-0.438
						C374.855,316.842,374.94,316.682,374.978,316.7z"/>
				</g>
			</g>
			<g>
				<g>
					<path style="fill:#FAFAFA;" d="M401.512,272.401c0.003-0.029,0.198-0.056,0.516,0.08c0.306,0.133,0.751,0.457,0.954,1.076
						c0.208,0.612,0.002,1.499-0.712,2.018c-0.357,0.264-0.832,0.367-1.273,0.359c-0.445-0.003-0.872-0.085-1.288-0.115
						c-0.816-0.093-1.552,0.242-2.034,0.744c-0.489,0.499-0.667,1.139-0.659,1.673c0.026,1.099,0.604,1.639,0.523,1.687
						c-0.007,0.056-0.748-0.412-0.891-1.668c-0.063-0.602,0.108-1.4,0.675-2.018c0.535-0.619,1.477-1.049,2.424-0.937
						c0.901,0.092,1.706,0.271,2.248-0.118c0.55-0.369,0.756-1.045,0.632-1.527c-0.118-0.503-0.453-0.829-0.697-0.996
						C401.679,272.487,401.503,272.443,401.512,272.401z"/>
				</g>
			</g>
			<g>
				<g>
					<path style="fill:#FAFAFA;" d="M370.677,299.227c-0.026,0.013-0.151-0.141-0.199-0.482c-0.045-0.331,0.001-0.879,0.424-1.374
						c0.415-0.496,1.28-0.779,2.095-0.438c0.411,0.168,0.746,0.521,0.967,0.902c0.228,0.382,0.38,0.79,0.57,1.161
						c0.344,0.746,1.012,1.201,1.691,1.352c0.681,0.16,1.32-0.021,1.772-0.305c0.926-0.592,1.088-1.367,1.171-1.322
						c0.052-0.023,0.036,0.853-0.964,1.627c-0.482,0.367-1.253,0.635-2.075,0.47c-0.806-0.136-1.663-0.718-2.059-1.585
						c-0.389-0.818-0.654-1.599-1.267-1.86c-0.601-0.278-1.286-0.104-1.633,0.252c-0.369,0.361-0.474,0.818-0.49,1.113
						C370.663,299.04,370.716,299.213,370.677,299.227z"/>
				</g>
			</g>
			<g>
				<g>
					<path style="fill:#FAFAFA;" d="M372.129,279.156c0.003-0.029,0.198-0.056,0.516,0.08c0.306,0.133,0.751,0.457,0.954,1.076
						c0.208,0.612,0.002,1.499-0.712,2.018c-0.357,0.264-0.832,0.367-1.273,0.359c-0.445-0.003-0.872-0.085-1.288-0.115
						c-0.816-0.093-1.552,0.242-2.034,0.744c-0.49,0.499-0.667,1.139-0.659,1.673c0.026,1.099,0.604,1.639,0.523,1.687
						c-0.007,0.056-0.748-0.412-0.891-1.668c-0.063-0.602,0.108-1.4,0.675-2.018c0.535-0.619,1.477-1.049,2.423-0.937
						c0.901,0.092,1.706,0.271,2.248-0.118c0.55-0.369,0.756-1.045,0.632-1.527c-0.118-0.503-0.453-0.829-0.697-0.996
						C372.296,279.241,372.12,279.197,372.129,279.156z"/>
				</g>
			</g>
			<g>
				<g>
					<path style="fill:#FAFAFA;" d="M371.528,326.653c0.003-0.029,0.198-0.056,0.516,0.08c0.306,0.133,0.751,0.457,0.955,1.076
						c0.208,0.612,0.002,1.499-0.712,2.018c-0.357,0.264-0.832,0.367-1.273,0.359c-0.445-0.003-0.872-0.085-1.288-0.115
						c-0.816-0.092-1.552,0.242-2.033,0.744c-0.49,0.499-0.667,1.139-0.659,1.673c0.026,1.099,0.604,1.639,0.523,1.687
						c-0.007,0.056-0.748-0.412-0.891-1.668c-0.063-0.603,0.108-1.4,0.675-2.018c0.535-0.619,1.477-1.049,2.424-0.937
						c0.901,0.092,1.706,0.271,2.248-0.118c0.55-0.369,0.756-1.045,0.632-1.527c-0.118-0.503-0.453-0.829-0.697-0.996
						C371.695,326.738,371.519,326.694,371.528,326.653z"/>
				</g>
			</g>
			<g>
				<g>
					<path style="fill:#FAFAFA;" d="M343.244,301.341c0.003-0.029,0.198-0.056,0.516,0.08c0.306,0.133,0.751,0.457,0.955,1.076
						c0.208,0.612,0.002,1.499-0.712,2.018c-0.357,0.264-0.832,0.367-1.273,0.359c-0.445-0.003-0.872-0.085-1.288-0.115
						c-0.816-0.093-1.552,0.242-2.034,0.744c-0.49,0.499-0.667,1.139-0.659,1.673c0.026,1.099,0.604,1.639,0.523,1.687
						c-0.007,0.056-0.748-0.412-0.891-1.668c-0.063-0.603,0.108-1.4,0.675-2.018c0.535-0.619,1.477-1.049,2.424-0.937
						c0.901,0.092,1.706,0.271,2.248-0.118c0.549-0.369,0.756-1.045,0.632-1.527c-0.118-0.503-0.453-0.829-0.697-0.996
						C343.411,301.426,343.235,301.382,343.244,301.341z"/>
				</g>
			</g>
			<g>
				<g>
					<path style="fill:#FAFAFA;" d="M350.788,287.509c0.028,0.005,0.038,0.203-0.126,0.506c-0.16,0.293-0.523,0.707-1.158,0.853
						c-0.629,0.152-1.493-0.134-1.945-0.892c-0.231-0.379-0.29-0.862-0.242-1.3c0.043-0.443,0.164-0.861,0.231-1.273
						c0.166-0.804-0.1-1.567-0.557-2.093c-0.452-0.533-1.074-0.768-1.606-0.808c-1.097-0.074-1.687,0.453-1.727,0.368
						c-0.055-0.012,0.478-0.708,1.742-0.736c0.606-0.009,1.385,0.234,1.948,0.855c0.568,0.589,0.911,1.566,0.714,2.499
						c-0.173,0.889-0.425,1.675-0.086,2.249c0.318,0.581,0.972,0.848,1.464,0.768c0.511-0.072,0.867-0.376,1.055-0.604
						C350.687,287.668,350.747,287.497,350.788,287.509z"/>
				</g>
			</g>
			<g>
				<g>
					<path style="fill:#FAFAFA;" d="M372.403,262.236c0.028,0.005,0.038,0.203-0.126,0.506c-0.16,0.293-0.523,0.706-1.158,0.853
						c-0.628,0.152-1.493-0.134-1.945-0.892c-0.231-0.379-0.29-0.862-0.242-1.3c0.043-0.443,0.164-0.861,0.231-1.273
						c0.166-0.804-0.1-1.567-0.557-2.092c-0.453-0.533-1.074-0.768-1.606-0.808c-1.097-0.074-1.687,0.453-1.727,0.368
						c-0.055-0.012,0.478-0.708,1.742-0.736c0.606-0.009,1.385,0.234,1.948,0.855c0.568,0.589,0.911,1.566,0.714,2.499
						c-0.173,0.889-0.424,1.675-0.086,2.25c0.318,0.581,0.972,0.848,1.464,0.768c0.511-0.072,0.867-0.376,1.055-0.604
						C372.303,262.395,372.363,262.224,372.403,262.236z"/>
				</g>
			</g>
			<g>
				<g>
					<path style="fill:#FAFAFA;" d="M401.379,260.52c0.028,0.005,0.038,0.203-0.126,0.506c-0.16,0.293-0.523,0.707-1.158,0.853
						c-0.629,0.152-1.493-0.134-1.945-0.892c-0.231-0.379-0.29-0.862-0.242-1.3c0.043-0.443,0.164-0.861,0.231-1.273
						c0.166-0.804-0.1-1.567-0.557-2.093c-0.453-0.533-1.074-0.768-1.606-0.808c-1.097-0.074-1.687,0.453-1.727,0.368
						c-0.055-0.012,0.478-0.708,1.742-0.736c0.606-0.008,1.385,0.234,1.948,0.855c0.568,0.589,0.911,1.566,0.714,2.499
						c-0.173,0.889-0.424,1.675-0.086,2.249c0.318,0.581,0.972,0.848,1.464,0.768c0.511-0.072,0.867-0.376,1.055-0.604
						C401.279,260.679,401.339,260.508,401.379,260.52z"/>
				</g>
			</g>
			<g>
				<g>
					<path style="fill:#FAFAFA;" d="M325.141,304.95c0.028,0.005,0.038,0.203-0.126,0.506c-0.16,0.293-0.523,0.707-1.158,0.853
						c-0.629,0.152-1.493-0.134-1.945-0.892c-0.231-0.379-0.29-0.862-0.243-1.3c0.043-0.443,0.164-0.861,0.231-1.273
						c0.166-0.804-0.1-1.568-0.557-2.093c-0.453-0.533-1.074-0.768-1.606-0.808c-1.097-0.074-1.687,0.453-1.727,0.368
						c-0.055-0.012,0.478-0.708,1.742-0.736c0.606-0.008,1.385,0.234,1.948,0.855c0.568,0.589,0.911,1.566,0.714,2.499
						c-0.173,0.889-0.425,1.675-0.086,2.249c0.318,0.581,0.972,0.848,1.464,0.768c0.511-0.072,0.867-0.376,1.055-0.604
						C325.04,305.109,325.101,304.938,325.141,304.95z"/>
				</g>
			</g>
		</g>
		<g>
			<g>
				<path style="fill:#E0E0E0;" d="M371.584,378.918l-0.79,87.945h5.008l0.373-86.195c0,0,0.25-3.939,3.255-4.202
					s48.004,2.006,48.004,2.006l13.26,88.391h5.76l-12.953-88.38c0,0-37.794-12.783-56.576-8.844c0,0-4.508-0.832-4.758,2.626
					C371.918,375.723,371.584,378.918,371.584,378.918z"/>
			</g>
			<g>
				<path style="fill:#455A64;" d="M372.463,368.756c0,0,7.816-60.976,10.63-71.334c1.547-5.696,5.459-9.133,8.666-11.073
					c2.389-1.445,5.144-2.164,7.935-2.103l41.511,0.911c3.802,0.083,6.655,3.505,6.055,7.26l-13.758,86.066
					c-15.277-0.039-51.018,0-51.018,0s-48.898-5.338-56.401-5.666c-4.694-0.205-5.048,1.6-5.44,3.566c0,0,0.153,0.124,0,0
					c-4.401-3.565-1.775-10.892,3.879-10.547L372.463,368.756z"/>
			</g>
			<g>
				<g>
					<path style="fill:#263238;" d="M446.975,289.34c0,0.009-0.121,0.018-0.356,0.027c-0.262,0.007-0.608,0.015-1.046,0.026
						c-0.951,0.012-2.3,0.028-4.022,0.049c-3.525,0.02-8.571,0.048-14.793,0.083c-3.126,0.01-6.546,0.02-10.216,0.032
						c-1.836,0.004-3.735,0.009-5.691,0.013c-0.978,0.002-1.97,0.004-2.976,0.006c-1.005,0.006-2.033-0.019-3.032,0.063
						c-2.007,0.213-4.02,0.962-5.687,2.269c-1.69,1.274-2.999,3.102-3.729,5.17c-0.376,1.033-0.51,2.142-0.704,3.275
						c-0.184,1.127-0.37,2.264-0.557,3.409c-0.375,2.29-0.755,4.613-1.139,6.964c-3.109,18.796-5.924,35.808-7.967,48.158
						c-1.04,6.135-1.884,11.109-2.473,14.584c-0.299,1.696-0.533,3.024-0.698,3.961c-0.081,0.43-0.146,0.77-0.195,1.028
						c-0.047,0.231-0.075,0.349-0.084,0.347c-0.009-0.001,0.002-0.122,0.031-0.356c0.036-0.26,0.083-0.602,0.143-1.036
						c0.142-0.941,0.344-2.274,0.602-3.977c0.55-3.481,1.338-8.465,2.31-14.611c2.004-12.357,4.766-29.378,7.816-48.184
						c0.386-2.351,0.767-4.674,1.142-6.964c0.188-1.145,0.375-2.281,0.56-3.408c0.192-1.114,0.334-2.272,0.73-3.359
						c0.767-2.163,2.141-4.07,3.908-5.397c1.745-1.36,3.85-2.138,5.943-2.352c1.06-0.083,2.073-0.052,3.079-0.055
						c1.006,0.002,1.998,0.004,2.976,0.006c1.956,0.005,3.854,0.009,5.691,0.013c3.67,0.011,7.09,0.022,10.216,0.032
						c6.222,0.035,11.268,0.063,14.793,0.083c1.722,0.021,3.071,0.037,4.022,0.049c0.438,0.011,0.784,0.019,1.046,0.026
						C446.854,289.323,446.975,289.331,446.975,289.34z"/>
				</g>
			</g>
			<g>
				<path style="fill:#EBEBEB;" d="M320.566,378.918l-2.279,87.945h5.009l1.298-86.057c0,0,0.061-5.123,3.964-4.696
					c2.999,0.328,48.438,5.609,48.438,5.609l15.298,85.144h5.76l-15.569-88.38l-55.693-7.017c-1.159-0.146-2.354-0.007-3.399,0.514
					c-1.263,0.629-2.571,1.887-2.749,4.404C320.398,379.842,320.566,378.918,320.566,378.918z"/>
			</g>
		</g>
		<g>
			<g>
				<path style="fill:#E8505B;" d="M434.223,285.004c0,0-28.041,91.166-61.76,83.752l0.557-4.298c0,0,26.063,4.33,56.73-79.552
					L434.223,285.004z"/>
			</g>
			<g>
				<path style="fill:#E8505B;" d="M374.872,367.734c0.132,9.467,2,18.907,5.484,27.71c1.013,2.559,2.344,5.26,4.823,6.456
					c2.455,1.185,5.365,0.571,7.993-0.154c6.536-1.802,12.92-4.152,19.065-7.017c2.255-1.051,4.618-2.306,5.773-4.509
					c1.377-2.627,0.651-5.817-0.135-8.678c-2.524-9.186-5.358-18.286-8.495-27.281c-0.654-1.875-3.655-9.108-3.655-9.108"/>
			</g>
			<g>
				<g>
					<path style="fill:#263238;" d="M409.093,355.948c0.018,0.001,0.022,0.169,0.014,0.488c-0.003,0.319-0.035,0.789-0.088,1.393
						c-0.113,1.207-0.369,2.952-0.954,5.049c-0.6,2.087-1.549,4.531-3.109,6.965c-1.542,2.437-3.757,4.813-6.552,6.647
						c-2.802,1.819-5.908,2.876-8.803,3.081c-2.898,0.221-5.513-0.325-7.542-1.119c-2.033-0.814-3.499-1.846-4.405-2.655
						c-0.451-0.409-0.788-0.74-0.992-0.987c-0.212-0.239-0.316-0.37-0.303-0.382c0.04-0.039,0.487,0.464,1.425,1.214
						c0.934,0.75,2.402,1.713,4.407,2.466c2.001,0.734,4.557,1.226,7.372,0.985c2.81-0.224,5.825-1.265,8.558-3.039
						c2.727-1.789,4.901-4.098,6.434-6.471c1.551-2.371,2.522-4.761,3.159-6.809c0.622-2.057,0.931-3.777,1.105-4.969
						C408.992,356.612,409.049,355.945,409.093,355.948z"/>
				</g>
			</g>
			<g>
				<g>
					<path style="fill:#263238;" d="M395.813,381.301c-0.144-0.01-0.128-1.964,0.034-4.363c0.162-2.401,0.41-4.338,0.554-4.329
						c0.143,0.01,0.128,1.963-0.034,4.364C396.204,379.372,395.957,381.31,395.813,381.301z"/>
				</g>
			</g>
		</g>
	</g>
</g>
<g id="Plant">
	<g>
		<g>
			<g>
				<g>
					<g>
						<path style="fill:#E8505B;" d="M93.047,400.999c7.283,2.543,16.783,0.271,23.013-4.278c6.23-4.549,10.713-11.068,14.687-17.68
							c1.695-2.821,3.351-5.763,3.887-9.011s-0.253-6.902-2.772-9.021c-3.915-3.294-9.913-1.623-14.358,0.909
							C103.59,369.84,94.09,385.022,93.047,400.999"/>
					</g>
				</g>
			</g>
			<g>
				<g>
					<g>
						<path style="fill:#E8505B;" d="M100.866,418.43c4.373,5.77,11.888,8.339,19.121,8.674c7.232,0.335,14.379-1.665,21.139-4.258
							c2.453-0.941,5.136-2.231,5.978-4.72c0.637-1.884-0.018-4.03-1.281-5.567c-1.262-1.536-3.052-2.548-4.881-3.327
							c-6.654-2.834-14.277-2.967-21.278-1.152C112.663,409.895,106.547,413.954,100.866,418.43"/>
					</g>
				</g>
			</g>
			<g>
				<g>
					<g>
						<path style="fill:#E8505B;" d="M92.94,369.799c6.028,0.12,10.592-5.16,13.321-10.537c3.78-7.446,5.061-16.133,3.59-24.353
							c-0.551-3.081-1.716-6.402-4.473-7.884c-2.801-1.506-6.447-0.514-8.796,1.63c-2.349,2.144-3.635,5.204-4.574,8.243
							C88.774,347.37,89.471,359.404,92.94,369.799"/>
					</g>
				</g>
			</g>
			<g>
				<g>
					<g>
						<path style="fill:#E8505B;" d="M73.138,403.144c10.279-17.494,11.992-38.898,5.921-58.259
							c-0.985-3.141-2.843-6.735-6.128-6.943c-3.638-0.23-5.918,3.825-6.923,7.329c-3.524,12.294-2.775,25.353-1.996,38.118
							C64.492,391.253,67.193,397.975,73.138,403.144"/>
					</g>
				</g>
			</g>
			<g>
				<g>
					<g>
						<path style="fill:#E8505B;" d="M62.449,410.338c-3.724-11.981-13.2-22.03-24.942-26.45c-2.73-1.028-6.2-1.614-8.236,0.475
							c-1.997,2.049-1.382,5.473-0.101,8.031c2.069,4.132,5.429,7.451,8.776,10.637c3.044,2.898,6.208,5.806,10.059,7.49
							C51.856,412.206,58.928,412.634,62.449,410.338"/>
					</g>
				</g>
			</g>
			<g>
				<g>
					<g>
						<g>
							<path style="fill:#263238;" d="M126.176,365.396c0.005,0.007-0.056,0.061-0.179,0.16c-0.147,0.114-0.329,0.255-0.554,0.429
								c-0.523,0.391-1.243,0.93-2.154,1.611c-0.473,0.349-0.995,0.734-1.563,1.154c-0.562,0.435-1.148,0.937-1.792,1.459
								c-1.272,1.063-2.776,2.207-4.289,3.647c-0.773,0.702-1.581,1.437-2.423,2.202c-0.838,0.77-1.646,1.639-2.518,2.501
								c-1.769,1.701-3.483,3.686-5.325,5.737c-3.567,4.204-7.227,9.051-10.599,14.449c-3.323,5.432-6.022,10.875-8.188,15.945
								c-1.01,2.566-2.02,4.986-2.751,7.329c-0.381,1.165-0.798,2.276-1.111,3.37c-0.308,1.095-0.604,2.147-0.887,3.152
								c-0.611,1.997-0.962,3.854-1.344,5.467c-0.179,0.809-0.367,1.559-0.504,2.255c-0.121,0.696-0.232,1.335-0.333,1.914
								c-0.202,1.12-0.361,2.004-0.478,2.647c-0.055,0.279-0.1,0.505-0.136,0.687c-0.034,0.154-0.055,0.233-0.063,0.232
								c-0.008-0.001-0.003-0.082,0.014-0.239c0.023-0.184,0.053-0.413,0.089-0.694c0.094-0.647,0.224-1.538,0.388-2.665
								c0.089-0.582,0.186-1.225,0.292-1.925c0.124-0.701,0.299-1.454,0.466-2.268c0.358-1.623,0.687-3.49,1.278-5.499
								c0.274-1.011,0.561-2.069,0.86-3.171c0.305-1.101,0.714-2.218,1.088-3.391c0.717-2.357,1.716-4.793,2.719-7.373
								c2.152-5.1,4.851-10.573,8.188-16.028c3.387-5.422,7.074-10.282,10.674-14.487c1.859-2.05,3.591-4.033,5.378-5.728
								c0.881-0.859,1.698-1.724,2.546-2.49c0.852-0.76,1.67-1.489,2.452-2.187c1.532-1.427,3.056-2.556,4.348-3.602
								c0.654-0.513,1.25-1.007,1.821-1.431c0.579-0.408,1.11-0.783,1.591-1.122c0.935-0.651,1.673-1.165,2.21-1.539
								c0.236-0.158,0.427-0.286,0.581-0.39C126.101,365.429,126.171,365.389,126.176,365.396z"/>
						</g>
					</g>
				</g>
			</g>
			<g>
				<g>
					<g>
						<g>
							<path style="fill:#263238;" d="M139.788,413.889c-0.004,0.016-0.247-0.025-0.705-0.118c-0.46-0.083-1.127-0.26-2.002-0.406
								c-1.739-0.34-4.281-0.724-7.442-0.91c-6.288-0.402-15.225,0.343-24.169,4.066c-8.948,3.721-15.775,9.537-19.922,14.281
								c-2.096,2.373-3.615,4.447-4.599,5.92c-0.514,0.723-0.857,1.321-1.123,1.706c-0.257,0.39-0.399,0.591-0.413,0.583
								c-0.015-0.008,0.099-0.226,0.33-0.634c0.239-0.402,0.558-1.017,1.049-1.759c0.939-1.51,2.423-3.625,4.499-6.042
								c4.106-4.831,10.961-10.747,19.994-14.503c9.028-3.758,18.055-4.452,24.376-3.96c3.178,0.231,5.724,0.669,7.458,1.067
								c0.872,0.174,1.534,0.382,1.987,0.496C139.557,413.8,139.792,413.873,139.788,413.889z"/>
						</g>
					</g>
				</g>
			</g>
			<g>
				<g>
					<g>
						<g>
							<path style="fill:#263238;" d="M101.827,334.009c0.008,0.002-0.006,0.094-0.04,0.272c-0.042,0.204-0.096,0.462-0.164,0.786
								c-0.162,0.722-0.388,1.73-0.676,3.011c-0.592,2.614-1.495,6.386-2.63,11.041c-2.264,9.313-5.555,22.136-8.984,36.346
								c-1.703,7.11-3.245,13.902-4.575,20.094c-1.304,6.198-2.416,11.792-3.244,16.509c-0.444,2.354-0.778,4.494-1.094,6.37
								c-0.324,1.875-0.572,3.495-0.766,4.82c-0.202,1.297-0.361,2.317-0.474,3.048c-0.056,0.326-0.1,0.586-0.135,0.791
								c-0.033,0.178-0.054,0.268-0.063,0.268c-0.008-0.001-0.004-0.094,0.013-0.274c0.023-0.207,0.052-0.469,0.088-0.798
								c0.092-0.734,0.221-1.759,0.384-3.062c0.165-1.33,0.386-2.955,0.685-4.836c0.291-1.882,0.601-4.028,1.024-6.387
								c0.785-4.729,1.864-10.335,3.144-16.543c1.306-6.202,2.837-13.001,4.54-20.115c3.43-14.217,6.774-27.026,9.122-36.316
								c1.167-4.62,2.114-8.37,2.779-11.002c0.325-1.272,0.581-2.273,0.764-2.99c0.087-0.319,0.156-0.574,0.211-0.775
								C101.789,334.095,101.818,334.007,101.827,334.009z"/>
						</g>
					</g>
				</g>
			</g>
			<g>
				<g>
					<g>
						<g>
							<path style="fill:#263238;" d="M78.223,435.959c-0.008,0.002-0.03-0.07-0.065-0.212c-0.039-0.17-0.086-0.378-0.144-0.631
								c-0.124-0.597-0.293-1.409-0.506-2.435c-0.435-2.116-1.013-5.188-1.671-8.995c-1.318-7.611-2.881-18.181-3.842-29.936
								c-0.466-5.88-0.725-11.495-0.839-16.603c-0.085-5.109-0.04-9.713,0.119-13.573c0.047-1.932,0.175-3.675,0.259-5.208
								c0.079-1.533,0.187-2.85,0.286-3.926c0.096-1.044,0.173-1.87,0.228-2.477c0.029-0.258,0.052-0.469,0.072-0.643
								c0.019-0.145,0.033-0.218,0.041-0.218c0.008,0.001,0.011,0.076,0.008,0.222c-0.006,0.174-0.014,0.387-0.023,0.647
								c-0.034,0.608-0.08,1.436-0.138,2.482c-0.071,1.077-0.151,2.395-0.204,3.927c-0.058,1.532-0.161,3.274-0.187,5.204
								c-0.116,3.857-0.125,8.452-0.015,13.553c0.138,5.1,0.41,10.704,0.875,16.574c0.959,11.736,2.466,22.299,3.697,29.919
								c0.615,3.81,1.14,6.89,1.518,9.016c0.175,1.033,0.315,1.851,0.417,2.452c0.039,0.257,0.07,0.467,0.096,0.64
								C78.226,435.882,78.232,435.957,78.223,435.959z"/>
						</g>
					</g>
				</g>
			</g>
			<g>
				<g>
					<g>
						<g>
							<path style="fill:#263238;" d="M78.984,438.18c-0.016,0.005-0.108-0.203-0.268-0.604c-0.172-0.447-0.397-1.032-0.677-1.759
								c-0.147-0.387-0.308-0.812-0.482-1.272c-0.204-0.458-0.425-0.951-0.66-1.478c-0.236-0.533-0.488-1.1-0.754-1.7
								c-0.266-0.602-0.61-1.209-0.936-1.863c-0.335-0.651-0.685-1.331-1.049-2.039c-0.401-0.69-0.818-1.408-1.25-2.149
								c-0.825-1.508-1.892-3.007-2.923-4.64c-2.204-3.174-4.794-6.547-7.742-9.894c-2.979-3.322-6.02-6.297-8.884-8.893
								c-1.477-1.246-2.83-2.492-4.197-3.536c-0.672-0.535-1.321-1.053-1.946-1.551c-0.641-0.473-1.258-0.927-1.847-1.362
								c-1.165-0.885-2.262-1.624-3.228-2.271c-0.956-0.662-1.791-1.214-2.493-1.634c-0.659-0.418-1.188-0.753-1.593-1.01
								c-0.362-0.236-0.548-0.366-0.539-0.381c0.008-0.015,0.21,0.088,0.588,0.296c0.418,0.237,0.963,0.547,1.642,0.933
								c0.719,0.397,1.571,0.927,2.544,1.569c0.983,0.627,2.097,1.349,3.279,2.219c0.598,0.428,1.222,0.876,1.872,1.342
								c0.633,0.493,1.29,1.005,1.97,1.535c1.383,1.035,2.751,2.274,4.243,3.517c2.893,2.588,5.957,5.567,8.95,8.905
								c2.962,3.363,5.555,6.762,7.749,9.966c1.026,1.648,2.086,3.163,2.9,4.688c0.425,0.75,0.836,1.476,1.232,2.174
								c0.356,0.716,0.699,1.405,1.027,2.064c0.317,0.662,0.653,1.277,0.909,1.887c0.255,0.608,0.497,1.183,0.724,1.723
								c0.223,0.535,0.432,1.036,0.625,1.5c0.161,0.468,0.31,0.899,0.445,1.292c0.245,0.742,0.442,1.338,0.593,1.794
								C78.939,437.957,79,438.175,78.984,438.18z"/>
						</g>
					</g>
				</g>
			</g>
			<g>
				<g>
					<g>
						<g>
							<path style="fill:#263238;" d="M122.364,385.686c-0.002,0.077-1.246,0.077-3.247,0.189c-2,0.109-4.758,0.372-7.759,0.939
								c-3.001,0.573-5.663,1.34-7.564,1.971c-1.902,0.63-3.06,1.086-3.09,1.015c-0.013-0.031,0.262-0.178,0.772-0.419
								c0.508-0.244,1.261-0.561,2.204-0.919c1.884-0.718,4.558-1.546,7.588-2.125c3.03-0.573,5.821-0.783,7.837-0.805
								c1.008-0.012,1.825,0.006,2.387,0.047C122.055,385.616,122.365,385.653,122.364,385.686z"/>
						</g>
					</g>
				</g>
			</g>
			<g>
				<g>
					<g>
						<g>
							<path style="fill:#263238;" d="M130.119,423.559c-0.146,0.076-1.309-3.275-4.231-6.382c-2.884-3.145-6.139-4.551-6.052-4.691
								c0.021-0.05,0.855,0.228,2.089,0.924c1.233,0.691,2.84,1.85,4.318,3.438c1.474,1.592,2.51,3.279,3.109,4.56
								C129.954,422.69,130.17,423.542,130.119,423.559z"/>
						</g>
					</g>
				</g>
			</g>
			<g>
				<g>
					<g>
						<g>
							<path style="fill:#263238;" d="M103.676,348.211c0.098,0.104-1.795,1.98-3.86,4.522c-2.076,2.535-3.533,4.766-3.655,4.691
								c-0.108-0.061,1.178-2.431,3.279-4.997C101.531,349.855,103.594,348.117,103.676,348.211z"/>
						</g>
					</g>
				</g>
			</g>
			<g>
				<g>
					<g>
						<g>
							<path style="fill:#263238;" d="M97.465,337.486c0.132-0.022,0.551,1.794,0.937,4.057c0.385,2.264,0.591,4.116,0.459,4.138
								c-0.132,0.023-0.551-1.794-0.937-4.057C97.539,339.361,97.333,337.508,97.465,337.486z"/>
						</g>
					</g>
				</g>
			</g>
			<g>
				<g>
					<g>
						<g>
							<path style="fill:#263238;" d="M78.237,371.141c0.119,0.062-1.229,2.897-3.009,6.332c-1.781,3.436-3.321,6.171-3.439,6.109
								c-0.119-0.061,1.228-2.896,3.009-6.332C76.578,373.815,78.118,371.079,78.237,371.141z"/>
						</g>
					</g>
				</g>
			</g>
			<g>
				<g>
					<g>
						<g>
							<path style="fill:#263238;" d="M66.791,359.716c0.12-0.06,1.262,1.991,2.55,4.58c1.289,2.59,2.237,4.737,2.117,4.796
								c-0.12,0.06-1.261-1.991-2.55-4.58C67.619,361.923,66.671,359.775,66.791,359.716z"/>
						</g>
					</g>
				</g>
			</g>
			<g>
				<g>
					<g>
						<g>
							<path style="fill:#263238;" d="M49.971,398.792c-0.032,0.139-2.073-0.258-4.617-0.432c-2.544-0.187-4.62-0.082-4.632-0.224
								c-0.016-0.124,2.075-0.449,4.666-0.26C47.98,398.054,50.005,398.671,49.971,398.792z"/>
						</g>
					</g>
				</g>
			</g>
		</g>
		<g>
			<g>
				<g>
					<g>
						<path style="fill:#263238;" d="M61.458,433.339l5.722,30.094c0.378,1.99,2.118,3.431,4.144,3.431h16.905
							c2.063,0,3.824-1.493,4.162-3.528l4.974-29.996H61.458z"/>
					</g>
				</g>
			</g>
			<g>
				<g>
					<g>
						<polygon style="fill:#455A64;" points="63.318,443.12 95.647,443.12 97.365,433.339 61.458,433.339 						"/>
					</g>
				</g>
			</g>
			<g>
				<g>
					<g>
						<polygon style="fill:#FAFAFA;" points="63.318,443.12 63.996,446.686 95.152,446.686 95.647,443.12 						"/>
					</g>
				</g>
			</g>
		</g>
	</g>
</g>
</svg>
